#N canvas 1 74 450 300 10;
#X obj 122 165 osc~ 440;
#X obj 123 214 *~ 0.2;
#X obj 125 139 mtof;
#X obj 213 201 pitch;
#X obj 127 112 inlet;
#X obj 218 255 outlet;
#X obj 123 247 outlet~;
#X connect 0 0 1 0;
#X connect 1 0 6 0;
#X connect 2 0 0 0;
#X connect 3 1 5 0;
#X connect 4 0 2 0;
#X connect 4 0 3 0;
