#N canvas 1 74 1278 666 16;
#X obj 33 305 hip~ 10;
#X floatatom 301 221 0 0 0 0 - - -;
#X obj 301 269 line~;
#X obj 301 245 pack 0 100;
#X floatatom 226 191 0 0 0 0 - - -;
#X floatatom 382 285 0 0 0 0 - - -;
#X obj 382 369 line~;
#X obj 382 345 pack 0 100;
#X obj 382 321 * 0.01;
#X floatatom 113 166 0 0 0 0 - - -;
#X obj 113 237 line~;
#X obj 113 213 pack 0 100;
#X obj 33 257 *~;
#X obj 33 281 cos~;
#X floatatom 92 87 0 0 0 0 - - -;
#X obj 34 131 mtof;
#X obj 32 171 * 0.5;
#X obj 33 329 clip~ -0.2 0.2;
#X obj 113 189 * 0.01;
#X obj 33 353 +~;
#X obj 361 395 *~;
#X obj 226 287 *~;
#X obj 226 215 / 100;
#X obj 36 377 hip~ 5;
#X obj 226 263 +~ 1;
#X obj 226 239 osc~ 0;
#X obj 226 311 +~ 1.46;
#X text 154 164 <-- timbre;
#X text 134 84 <-- pitch;
#X text 279 191 <-- cycle frequency (hundredths);
#X text 354 222 <-- cycle depth (msec);
#X text 431 298 <-- feedback (hundredths);
#X obj 33 206 osc~ 0;
#X obj 361 419 clip~ -1 1;
#X obj 31 74 inlet;
#X obj 33 488 outlet~;
#X obj 226 335 vd~ \$0-fuzzdel;
#X obj 361 443 delwrite~ \$0-fuzzdel 1000;
#X obj 397 139 inlet;
#X obj 314 12 inlet;
#X obj 276 134 inlet;
#X obj 531 112 inlet;
#X obj 542 150 - 127;
#X obj 611 186 abs;
#X obj 317 53 - 127;
#X obj 386 89 abs;
#X obj 717 260 / 127;
#X obj 463 276 * 100;
#X connect 0 0 17 0;
#X connect 1 0 3 0;
#X connect 2 0 21 1;
#X connect 3 0 2 0;
#X connect 4 0 22 0;
#X connect 5 0 8 0;
#X connect 6 0 20 1;
#X connect 7 0 6 0;
#X connect 8 0 7 0;
#X connect 9 0 18 0;
#X connect 10 0 12 1;
#X connect 11 0 10 0;
#X connect 12 0 13 0;
#X connect 13 0 0 0;
#X connect 14 0 15 0;
#X connect 15 0 16 0;
#X connect 16 0 32 0;
#X connect 17 0 19 0;
#X connect 18 0 11 0;
#X connect 19 0 23 0;
#X connect 20 0 33 0;
#X connect 21 0 26 0;
#X connect 22 0 25 0;
#X connect 23 0 20 0;
#X connect 23 0 35 0;
#X connect 24 0 21 0;
#X connect 25 0 24 0;
#X connect 26 0 36 0;
#X connect 32 0 12 0;
#X connect 33 0 37 0;
#X connect 34 0 14 0;
#X connect 36 0 19 1;
#X connect 38 0 1 0;
#X connect 39 0 44 0;
#X connect 40 0 4 0;
#X connect 41 0 42 0;
#X connect 42 0 43 0;
#X connect 43 0 46 0;
#X connect 44 0 45 0;
#X connect 45 0 9 0;
#X connect 46 0 47 0;
#X connect 47 0 5 0;
