#N canvas 0 74 1280 671 10;
#X floatatom 32 12 0 0 0 0 - - -;
#N canvas 0 0 454 304 cpu 0;
#X obj 61 159 cputime;
#X obj 61 19 loadbang;
#X obj 61 103 metro 1000;
#X msg 61 47 1;
#X floatatom 61 75 0 0 0 0 - - -;
#X obj 61 131 t b b;
#X obj 61 219 * 0.1;
#X obj 61 188 int;
#X text 106 75 <-- on/off;
#X obj 61 246 outlet;
#X connect 0 0 7 0;
#X connect 1 0 3 0;
#X connect 2 0 5 0;
#X connect 3 0 4 0;
#X connect 4 0 2 0;
#X connect 5 0 0 0;
#X connect 5 1 0 1;
#X connect 6 0 9 0;
#X connect 7 0 6 0;
#X restore 32 -14 pd cpu;
#X obj 89 219 tabwrite~ array99;
#X msg 80 14 \; pd dsp 1 \;;
#X obj 80 -14 loadbang;
#X obj 28 261 dac~;
#X obj 27 171 hip~ 20;
#N canvas 0 0 450 300 (subpatch) 0;
#X array array99 3000 float 0;
#X coords 0 1 2999 -1 150 100 1;
#X restore 45 317 graph;
#N canvas 0 0 531 530 corde 0;
#X obj 86 32 t b b b b;
#X msg 143 71 reset;
#X obj 92 4 inlet;
#X obj 141 409 outlet;
#X obj 72 270 pack f f;
#X obj 83 200 t f f;
#X obj 108 223 + 1;
#X msg 205 360 in 1 0 3 1;
#X msg 206 332 out 1 0 7 1;
#X text 254 75 number of masss on the string;
#X obj 144 220 + 1;
#X obj 104 112 + 1;
#N canvas 0 0 454 304 uzi 0;
#X obj 70 50 inlet;
#X obj 70 154 f;
#X obj 95 129 + 1;
#X msg 67 103 0;
#X obj 71 199 moses;
#X obj 69 74 t b f;
#X obj 71 232 outlet;
#X connect 0 0 5 0;
#X connect 1 0 4 0;
#X connect 2 0 1 0;
#X connect 3 0 1 0;
#X connect 4 0 2 0;
#X connect 4 0 6 0;
#X connect 5 0 3 0;
#X connect 5 1 4 1;
#X restore 83 160 pd uzi;
#N canvas 0 0 454 304 uzi 0;
#X obj 70 50 inlet;
#X obj 70 154 f;
#X obj 95 129 + 1;
#X msg 67 103 0;
#X obj 71 199 moses;
#X obj 69 74 t b f;
#X obj 71 232 outlet;
#X connect 0 0 5 0;
#X connect 1 0 4 0;
#X connect 2 0 1 0;
#X connect 3 0 1 0;
#X connect 4 0 2 0;
#X connect 4 0 6 0;
#X connect 5 0 3 0;
#X connect 5 1 4 1;
#X restore 138 156 pd uzi;
#X msg 149 181 mass 1 20 1;
#X msg 69 297 link 1 \$1 \$2 0.1 0.03;
#X obj 137 127 20;
#X obj 86 136 21;
#X obj 109 244 % 21;
#X msg 221 78 50;
#X connect 0 0 8 0;
#X connect 0 0 7 0;
#X connect 0 1 17 0;
#X connect 0 2 16 0;
#X connect 0 3 1 0;
#X connect 1 0 3 0;
#X connect 2 0 0 0;
#X connect 4 0 15 0;
#X connect 5 0 4 0;
#X connect 5 1 6 0;
#X connect 6 0 18 0;
#X connect 7 0 3 0;
#X connect 8 0 3 0;
#X connect 10 0 18 1;
#X connect 11 0 17 1;
#X connect 12 0 5 0;
#X connect 13 0 14 0;
#X connect 14 0 3 0;
#X connect 15 0 3 0;
#X connect 16 0 13 0;
#X connect 17 0 12 0;
#X connect 18 0 4 1;
#X connect 19 0 10 0;
#X connect 19 0 11 0;
#X connect 19 0 16 1;
#X restore 28 96 pd corde;
#X obj 28 74 bng 15 250 50 0 empty empty empty 0 -6 0 8 -262144 -1
-1;
#X obj 89 193 metro 100;
#X obj 89 167 tgl 15 0 empty empty empty 0 -6 0 8 -262144 -1 -1 0 1
;
#X obj 115 170 loadbang;
#X obj 28 122 pmpd~ 1 1;
#X obj 45 74 loadbang;
#X obj 111 97 line~;
#X msg 111 71 0.05 \, 0 1;
#X obj 28 146 *~ 0.7;
#X text 190 70 <- send a force to a point of the string;
#X obj 275 121 metro 200;
#X obj 275 100 tgl 15 0 empty empty empty 17 7 0 10 -262144 -1 -1 1
1;
#X obj 248 147 t b b;
#X msg 246 205 0.05 \, 0 0.5;
#X obj 243 175 delay 100;
#X floatatom 362 158 5 0 0 0 - - -;
#X obj 326 202 counter 300;
#X obj 263 285 mono-pitchshifter;
#X floatatom 302 230 5 0 0 0 - - -;
#X msg 308 255 0 \$1;
#X obj 855 282 vsl 15 128 0 1 0 0 empty empty empty 0 -8 0 8 -262144
-1 -1 6139 0;
#X obj 573 143 hradio 15 1 0 5 empty empty empty 0 -6 0 8 -262144 -1
-1 3;
#N canvas 478 74 445 299 preset 0;
#X msg 36 193 setK 0.05 \, setD 0 \, setD2 30;
#X msg 55 166 setK 1 \, setD 0 \, setD2 30;
#X msg 75 138 setK 1 \, setD 0 \, setD2 200;
#X obj 36 16 inlet;
#X obj 115 254 outlet;
#X msg 95 108 setK 300 \, setD 300 \, setD2 5;
#X obj 36 43 sel 2 1 0 3 4;
#X msg 115 78 setK 3000 \, setD 1000 \, setD2 5000;
#X connect 0 0 4 0;
#X connect 1 0 4 0;
#X connect 2 0 4 0;
#X connect 3 0 6 0;
#X connect 5 0 4 0;
#X connect 6 0 0 0;
#X connect 6 1 1 0;
#X connect 6 2 2 0;
#X connect 6 3 5 0;
#X connect 6 4 7 0;
#X connect 7 0 4 0;
#X restore 573 164 pd preset;
#X obj 836 282 vsl 15 128 0 1 0 0 empty empty empty 0 -8 0 8 -262144
-1 -1 5905 0;
#X text 672 140 <- diferents comportement of the link;
#N canvas 0 0 268 186 stuff 0;
#X obj 13 20 loadbang;
#X obj 48 97 s \$0-lia;
#X obj 13 72 t b b;
#X obj 13 123 s \$0-masse;
#X obj 13 45 metro 5;
#X obj 89 20 bng 15 250 50 0 empty empty empty 0 -6 0 8 -262144 -1
-1;
#X msg 124 92 reset;
#X msg 89 66 resetL \, resetF;
#X obj 89 40 t b b;
#X connect 0 0 4 0;
#X connect 2 0 3 0;
#X connect 2 1 1 0;
#X connect 4 0 2 0;
#X connect 5 0 8 0;
#X connect 6 0 3 0;
#X connect 7 0 1 0;
#X connect 8 0 7 0;
#X connect 8 1 6 0;
#X restore 574 110 pd stuff;
#X text 895 391 look at the mouvement of the masse (the right slider)
;
#X obj 667 212 link \$0-lia 0 1 0 200;
#X obj 855 212 mass \$0-masse 10000 0;
#X obj 663 360 line;
#X floatatom 663 315 5 0 0 0 - - -;
#X obj 655 286 count 10;
#X obj 603 339 / 20;
#X floatatom 601 366 5 0 0 0 - - -;
#X obj 588 394 + 0.25;
#X msg 631 416 \$1 100;
#X obj 658 237 tgl 15 0 empty empty empty 17 7 0 10 -262144 -1 -1 1
1;
#X obj 655 262 metro 100;
#X floatatom 742 265 5 0 0 0 - - -;
#X obj 264 397 mono-pitchshifter;
#X connect 1 0 0 0;
#X connect 4 0 3 0;
#X connect 6 0 2 0;
#X connect 6 0 26 0;
#X connect 6 0 48 0;
#X connect 8 0 13 0;
#X connect 9 0 8 0;
#X connect 10 0 2 0;
#X connect 11 0 10 0;
#X connect 12 0 10 0;
#X connect 13 0 17 0;
#X connect 14 0 8 0;
#X connect 15 0 13 0;
#X connect 16 0 15 0;
#X connect 17 0 6 0;
#X connect 19 0 21 0;
#X connect 19 0 25 0;
#X connect 20 0 19 0;
#X connect 21 0 23 0;
#X connect 21 1 22 0;
#X connect 22 0 15 0;
#X connect 23 0 16 0;
#X connect 24 0 19 1;
#X connect 25 0 23 1;
#X connect 26 0 5 1;
#X connect 27 0 28 0;
#X connect 28 0 26 1;
#X connect 29 0 27 0;
#X connect 30 0 31 0;
#X connect 31 0 36 0;
#X connect 32 0 36 0;
#X connect 36 1 37 0;
#X connect 37 0 29 0;
#X connect 37 0 36 1;
#X connect 38 0 32 0;
#X connect 39 0 41 0;
#X connect 40 0 39 0;
#X connect 41 0 42 0;
#X connect 42 0 43 0;
#X connect 43 0 44 0;
#X connect 44 0 38 0;
#X connect 45 0 46 0;
#X connect 46 0 40 0;
#X connect 47 0 46 1;
#X connect 48 0 5 0;
