#N canvas 1 74 450 300 10;
#N canvas 2 74 921 666 sitar1 0;
#X msg 231 376 \; \$1 normalize 1;
#X obj 65 152 soundfiler;
#X obj 230 312 symbol;
#X obj 70 193 bang;
#X obj 652 216 outlet~;
#X obj 613 -1 inlet;
#N canvas 2 101 771 619 pshifter 0;
#X floatatom 19 87 0 0 0 0 - - -;
#X obj 82 358 *~;
#X obj 205 295 line~;
#X floatatom 237 112 0 0 0 0 - - -;
#X obj 205 269 pack 0 200;
#X obj 237 76 r window;
#X obj 16 9 r transpose;
#X obj 19 143 exp;
#X floatatom 19 169 6 0 0 0 - - -;
#X obj 19 259 /;
#X obj 146 189 * 0.001;
#X obj 314 365 line~;
#X obj 314 340 pack 0 200;
#X floatatom 314 289 0 0 0 0 - - -;
#X obj 314 263 r delay;
#X obj 82 384 +~;
#X obj 19 410 cos~;
#X obj 19 437 *~;
#X obj 19 466 +~;
#X obj 106 317 wrap~;
#X obj 251 360 *~;
#X obj 251 393 +~;
#X obj 188 420 cos~;
#X obj 188 447 *~;
#X msg 492 56 \; transpose 0 \; window 100 \; delay 0;
#X obj 492 30 loadbang;
#X obj 146 216 t b f;
#X floatatom 19 285 6 0 0 0 - - -;
#X obj 106 290 +~ 0.5;
#X obj 19 358 -~ 0.5;
#X obj 19 384 *~ 0.5;
#X obj 188 359 -~ 0.5;
#X obj 188 392 *~ 0.5;
#X obj 19 196 - 1;
#X obj 19 117 * 0.05776;
#X obj 19 222 * -1;
#X text 53 86 <-- transposition;
#X text 96 99 (halftones);
#X text 82 163 speed;
#X text 81 177 change;
#X text 281 111 <--window (msec);
#X text 54 252 tape head;
#X obj 19 316 phasor~;
#X obj 314 316 max 1.5;
#X text 317 222 delay;
#X text 314 240 (msec);
#X obj 237 139 max 1;
#X text 55 265 rotation freq;
#X obj 82 410 vd~ G09-del;
#X obj 251 422 vd~ G09-del;
#X obj 264 42 delwrite~ G09-del 5000;
#X obj 264 3 inlet~;
#X obj 72 51 inlet;
#X obj 20 501 outlet~;
#X connect 0 0 34 0;
#X connect 1 0 15 0;
#X connect 2 0 1 1;
#X connect 2 0 20 1;
#X connect 3 0 46 0;
#X connect 4 0 2 0;
#X connect 5 0 3 0;
#X connect 6 0 0 0;
#X connect 7 0 8 0;
#X connect 8 0 33 0;
#X connect 9 0 27 0;
#X connect 10 0 26 0;
#X connect 11 0 15 1;
#X connect 11 0 21 1;
#X connect 12 0 11 0;
#X connect 13 0 43 0;
#X connect 14 0 13 0;
#X connect 15 0 48 0;
#X connect 16 0 17 0;
#X connect 17 0 18 0;
#X connect 18 0 53 0;
#X connect 19 0 20 0;
#X connect 19 0 31 0;
#X connect 20 0 21 0;
#X connect 21 0 49 0;
#X connect 22 0 23 0;
#X connect 23 0 18 1;
#X connect 25 0 24 0;
#X connect 26 0 9 0;
#X connect 26 1 9 1;
#X connect 27 0 42 0;
#X connect 28 0 19 0;
#X connect 29 0 30 0;
#X connect 30 0 16 0;
#X connect 31 0 32 0;
#X connect 32 0 22 0;
#X connect 33 0 35 0;
#X connect 34 0 7 0;
#X connect 35 0 9 0;
#X connect 42 0 1 0;
#X connect 42 0 29 0;
#X connect 42 0 28 0;
#X connect 43 0 12 0;
#X connect 46 0 10 0;
#X connect 46 0 4 0;
#X connect 48 0 17 1;
#X connect 49 0 23 1;
#X connect 51 0 50 0;
#X connect 52 0 0 0;
#X restore 546 171 pd pshifter;
#X obj 554 -135 table sitar1-sample;
#X obj 652 100 tabplay~ sitar1-sample;
#X obj 67 -20 loadbang;
#X msg 41 45 read -resize /home/glerm/devolts/toscolao/soundfonts/sitar1.wav
sitar1-sample;
#X obj 636 36 t b f;
#X connect 1 0 3 0;
#X connect 2 0 0 0;
#X connect 3 0 2 0;
#X connect 5 0 11 0;
#X connect 6 0 4 0;
#X connect 8 0 6 1;
#X connect 9 0 10 0;
#X connect 10 0 1 0;
#X connect 11 0 8 0;
#X connect 11 1 6 0;
#X restore 60 76 pd sitar1;
