#N canvas 1 74 757 640 24;
#X obj 87 299 fluid~;
#X obj 191 384 loadbang;
#X obj 53 132 makenote 127 100;
#X obj 46 386 outlet~;
#X msg 418 133 p 1 \$1;
#X obj 86 188 pack f f;
#X msg 84 232 1 \$1 \$2;
#X msg 194 421 init /home/glerm/puredata/Unison.sf2;
#X obj 49 67 inlet;
#X obj 144 66 inlet;
#X obj 264 68 inlet;
#X obj 418 83 inlet;
#X connect 0 0 3 0;
#X connect 0 1 3 0;
#X connect 1 0 7 0;
#X connect 2 0 5 0;
#X connect 2 1 5 1;
#X connect 4 0 0 0;
#X connect 5 0 6 0;
#X connect 6 0 0 0;
#X connect 7 0 0 0;
#X connect 8 0 2 0;
#X connect 9 0 2 1;
#X connect 10 0 2 2;
#X connect 11 0 4 0;
