#N canvas 1 74 1265 666 10;
#X obj 41 149 prepend set;
#X msg 32 172 0 0 0 0 0 0 0 0;
#X obj 143 238 prepend set;
#X msg 134 261 0 0;
#X obj 167 149 prepend set;
#X msg 158 172 0 127 0 127 0;
#X obj 249 220 prepend set;
#X msg 240 243 0 127 0 127 0;
#X obj 274 158 prepend set;
#X msg 265 181 0 0;
#X obj 111 39 toscolino;
#X obj 310 647 dac~;
#X floatatom 149 452 5 0 0 0 - - -;
#X floatatom 201 430 5 0 0 0 - - -;
#X floatatom 260 425 5 0 0 0 - - -;
#X floatatom 271 470 5 0 0 0 - - -;
#X obj 46 358 metro 100;
#X obj 39 391 list-dripslow;
#X obj 450 91 unpack f f f f f f f f;
#X obj 219 357 metro 100;
#X obj 212 390 list-dripslow;
#X obj 444 355 metro 100;
#X obj 437 388 list-dripslow;
#X msg 526 389 74 76 77 79 81 83 84;
#X obj 73 323 change;
#X obj 144 328 change;
#X obj 307 328 change;
#X msg 301 390 86 88 89 91 81 83 84;
#X msg 128 392 36 48 24 57 33;
#X obj 676 365 metro 100;
#X obj 669 398 list-dripslow;
#X obj 673 339 change;
#X msg 758 399 72 84 60 93 69;
#X floatatom 350 455 5 0 0 0 - - -;
#X floatatom 402 433 5 0 0 0 - - -;
#X floatatom 461 428 5 0 0 0 - - -;
#X floatatom 472 473 5 0 0 0 - - -;
#X obj 1099 521 prepend set;
#X obj 610 294 autoscale 50 100;
#X obj 403 257 unpack f f f f f;
#X floatatom 479 209 5 0 0 0 - - -;
#X obj 577 232 autoscale 0 1000;
#X obj 175 497 - 0;
#X obj 280 615 +~;
#N canvas 3 128 450 300 modula_baixo 0;
#X obj 79 68 - 127;
#X obj 83 97 abs;
#X obj 76 121 autoscale 0 5;
#X obj 78 143 int;
#X obj 75 164 sel 0 1 2 3 4 5;
#X msg 60 193 0;
#X msg 186 196 12;
#X msg 90 193 3;
#X msg 118 192 5;
#X msg 149 194 7;
#X obj 78 41 inlet;
#X obj 87 227 outlet;
#X connect 0 0 1 0;
#X connect 1 0 2 0;
#X connect 2 0 3 0;
#X connect 3 0 4 0;
#X connect 4 0 5 0;
#X connect 4 1 7 0;
#X connect 4 2 8 0;
#X connect 4 3 9 0;
#X connect 4 4 6 0;
#X connect 5 0 11 0;
#X connect 6 0 11 0;
#X connect 7 0 11 0;
#X connect 8 0 11 0;
#X connect 9 0 11 0;
#X connect 10 0 0 0;
#X restore 581 516 pd modula_baixo;
#N canvas 3 128 450 300 modula_flauta 0;
#X obj 79 68 - 127;
#X obj 83 97 abs;
#X obj 76 121 autoscale 0 5;
#X obj 78 143 int;
#X obj 75 164 sel 0 1 2 3 4 5;
#X msg 60 193 0;
#X msg 186 196 12;
#X msg 90 193 3;
#X msg 118 192 5;
#X msg 149 194 7;
#X obj 78 41 inlet;
#X obj 87 227 outlet;
#X connect 0 0 1 0;
#X connect 1 0 2 0;
#X connect 2 0 3 0;
#X connect 3 0 4 0;
#X connect 4 0 5 0;
#X connect 4 1 7 0;
#X connect 4 2 8 0;
#X connect 4 3 9 0;
#X connect 4 4 6 0;
#X connect 5 0 11 0;
#X connect 6 0 11 0;
#X connect 7 0 11 0;
#X connect 8 0 11 0;
#X connect 9 0 11 0;
#X connect 10 0 0 0;
#X restore 692 510 pd modula_flauta;
#X obj 627 568 + 0;
#X floatatom 706 551 5 0 0 0 - - -;
#X obj 906 375 metro 100;
#X obj 899 408 list-dripslow;
#X obj 933 340 change;
#X msg 986 409 33 45 28 54 30;
#X obj 852 204 unpack f f f f f;
#X obj 1091 392 metro 100;
#X obj 1084 425 list-dripslow;
#X obj 1118 357 change;
#X obj 1097 497 list-math + 24;
#N canvas 3 128 450 300 modula_baixo 0;
#X obj 79 68 - 127;
#X obj 83 97 abs;
#X obj 76 121 autoscale 0 5;
#X obj 78 143 int;
#X obj 75 164 sel 0 1 2 3 4 5;
#X msg 60 193 0;
#X msg 186 196 12;
#X msg 90 193 3;
#X msg 118 192 5;
#X msg 149 194 7;
#X obj 78 41 inlet;
#X obj 87 227 outlet;
#X connect 0 0 1 0;
#X connect 1 0 2 0;
#X connect 2 0 3 0;
#X connect 3 0 4 0;
#X connect 4 0 5 0;
#X connect 4 1 7 0;
#X connect 4 2 8 0;
#X connect 4 3 9 0;
#X connect 4 4 6 0;
#X connect 5 0 11 0;
#X connect 6 0 11 0;
#X connect 7 0 11 0;
#X connect 8 0 11 0;
#X connect 9 0 11 0;
#X connect 10 0 0 0;
#X restore 831 512 pd modula_baixo;
#X obj 831 550 - 0;
#X msg 541 598 1 32;
#X obj 542 577 loadbang;
#X obj 495 290 autoscale 50 200;
#X obj 238 581 unison4;
#X msg 327 606 open bang;
#X obj 439 584 unison4;
#X obj 862 296 autoscale 10 500;
#X msg 1173 426 57 81 48 72 36;
#X obj 1046 472 list-random;
#X msg 537 628 2 84;
#X msg 77 541 2 0;
#X msg 313 537 d1 \$1;
#X msg 315 558 d4 \$1;
#X msg 117 623 2 84;
#X msg 196 629 d2 50;
#X obj 973 293 autoscale 20 50;
#X obj 97 591 t b b;
#X msg 147 597 12;
#X obj 219 488 - 0;
#X obj 79 518 t b b;
#X msg 129 524 0;
#X obj 761 278 sel 0 1;
#X msg 924 451 0;
#X msg 960 463 7;
#X obj 910 482 - 0;
#X msg 1164 273 36 72 48 81 57;
#X obj 1113 289 prepend set;
#X msg 1155 252 72 48;
#X obj 947 133 - 127;
#X obj 952 160 abs;
#X obj 1044 8 sel 0 1 2 3 4 5 6 7 8 9 10;
#X msg 1142 230 36 72 57;
#X obj 967 186 / 127;
#X obj 984 212 * 10;
#X obj 990 238 int;
#X floatatom 995 263 5 0 0 0 - - -;
#X msg 1134 205 48 81;
#X msg 1120 182 57 81;
#X msg 1023 49 57 81 48 72 36;
#X msg 1047 72 48 72;
#X msg 1068 101 36 81 57;
#X msg 1081 126 36 72 48;
#X msg 1103 156 36;
#X msg 1140 149 57;
#X connect 0 0 1 0;
#X connect 2 0 3 0;
#X connect 4 0 5 0;
#X connect 6 0 7 0;
#X connect 8 0 9 0;
#X connect 10 0 0 0;
#X connect 10 0 18 0;
#X connect 10 1 2 0;
#X connect 10 2 4 0;
#X connect 10 2 52 0;
#X connect 10 3 6 0;
#X connect 10 3 39 0;
#X connect 10 4 8 0;
#X connect 12 0 42 0;
#X connect 13 0 77 0;
#X connect 14 0 62 2;
#X connect 15 0 62 3;
#X connect 16 0 17 0;
#X connect 17 0 12 0;
#X connect 17 1 28 0;
#X connect 18 0 24 0;
#X connect 18 1 25 0;
#X connect 18 2 26 0;
#X connect 18 3 31 0;
#X connect 18 4 50 0;
#X connect 18 5 55 0;
#X connect 19 0 20 0;
#X connect 20 0 13 0;
#X connect 20 1 27 0;
#X connect 21 0 22 0;
#X connect 22 0 14 0;
#X connect 22 1 23 0;
#X connect 23 0 22 1;
#X connect 24 0 16 0;
#X connect 25 0 19 0;
#X connect 26 0 21 0;
#X connect 27 0 20 1;
#X connect 28 0 17 1;
#X connect 29 0 30 0;
#X connect 30 0 46 0;
#X connect 30 1 32 0;
#X connect 31 0 29 0;
#X connect 32 0 30 1;
#X connect 33 0 64 0;
#X connect 34 0 64 1;
#X connect 35 0 64 2;
#X connect 36 0 64 3;
#X connect 38 0 29 1;
#X connect 39 2 40 0;
#X connect 39 3 44 0;
#X connect 39 3 61 0;
#X connect 39 4 38 0;
#X connect 39 4 45 0;
#X connect 40 0 41 0;
#X connect 42 0 62 0;
#X connect 43 0 11 0;
#X connect 44 0 42 1;
#X connect 45 0 47 0;
#X connect 45 0 46 1;
#X connect 46 0 15 0;
#X connect 48 0 49 0;
#X connect 49 0 58 0;
#X connect 49 1 51 0;
#X connect 50 0 48 0;
#X connect 51 0 49 1;
#X connect 52 0 80 0;
#X connect 52 1 87 0;
#X connect 52 2 57 0;
#X connect 52 3 65 0;
#X connect 52 4 74 0;
#X connect 53 0 54 0;
#X connect 54 0 83 0;
#X connect 54 1 66 0;
#X connect 55 0 53 0;
#X connect 56 0 37 0;
#X connect 57 0 58 1;
#X connect 58 0 33 0;
#X connect 59 0 64 4;
#X connect 60 0 59 0;
#X connect 60 0 68 0;
#X connect 61 0 16 1;
#X connect 62 0 43 1;
#X connect 63 0 62 4;
#X connect 64 0 11 1;
#X connect 65 0 70 0;
#X connect 66 0 54 1;
#X connect 68 0 64 4;
#X connect 69 0 62 4;
#X connect 70 0 62 4;
#X connect 71 0 62 4;
#X connect 72 0 62 4;
#X connect 73 0 62 4;
#X connect 74 0 71 0;
#X connect 75 0 72 0;
#X connect 75 1 76 0;
#X connect 76 0 77 1;
#X connect 77 0 62 1;
#X connect 78 0 69 0;
#X connect 78 1 79 0;
#X connect 79 0 77 1;
#X connect 80 0 78 0;
#X connect 80 0 81 0;
#X connect 80 1 75 0;
#X connect 80 1 82 0;
#X connect 81 0 83 1;
#X connect 82 0 83 1;
#X connect 83 0 34 0;
#X connect 84 0 85 0;
#X connect 85 0 66 0;
#X connect 86 0 85 0;
#X connect 87 0 88 0;
#X connect 88 0 91 0;
#X connect 89 0 97 0;
#X connect 89 1 98 0;
#X connect 89 2 99 0;
#X connect 89 3 100 0;
#X connect 89 4 101 0;
#X connect 89 5 102 0;
#X connect 89 6 96 0;
#X connect 89 7 95 0;
#X connect 89 8 90 0;
#X connect 89 9 86 0;
#X connect 89 10 84 0;
#X connect 90 0 85 0;
#X connect 91 0 92 0;
#X connect 92 0 93 0;
#X connect 93 0 94 0;
#X connect 93 0 89 0;
#X connect 95 0 85 0;
#X connect 96 0 85 0;
#X connect 97 0 85 0;
#X connect 98 0 85 0;
#X connect 99 0 85 0;
#X connect 100 0 85 0;
#X connect 101 0 85 0;
#X connect 102 0 85 0;
