#N canvas 1 74 450 300 10;
#X obj 104 79 toscolinonovo;
#X obj 41 149 prepend set;
#X msg 32 172 0 0 0 0 0 0 0 0;
#X obj 143 238 prepend set;
#X msg 134 261 0 0;
#X obj 167 149 prepend set;
#X msg 158 172 0 127 0 127 0;
#X obj 249 220 prepend set;
#X msg 240 243 0 127 0 127 0;
#X obj 274 158 prepend set;
#X msg 265 181 0 0;
#X connect 0 0 1 0;
#X connect 0 1 3 0;
#X connect 0 2 5 0;
#X connect 0 3 7 0;
#X connect 0 4 9 0;
#X connect 1 0 2 0;
#X connect 3 0 4 0;
#X connect 5 0 6 0;
#X connect 7 0 8 0;
#X connect 9 0 10 0;
