#N canvas 2 101 637 560 10;
#X obj 104 79 toscolinonovo;
#X obj 41 149 prepend set;
#X msg 32 172 0 0 0 0 0 0 0 0;
#X obj 143 238 prepend set;
#X msg 134 261 0 0;
#X obj 167 149 prepend set;
#X msg 158 172 0 127 0 127 0;
#X obj 249 220 prepend set;
#X msg 240 243 0 127 0 127 0;
#X obj 274 158 prepend set;
#X msg 265 181 0 0;
#X obj 169 508 dac~;
#X obj 322 512 dsp;
#X obj 319 491 tgl 15 0 empty empty empty 17 7 0 10 -262144 -1 -1 1
1;
#X obj 61 289 unpack f f f f f f f f;
#N canvas 4 155 450 300 o1 0;
#X obj -75 34 osc~ 110;
#X obj -59 83 *~;
#X obj -44 61 line~;
#X msg -15 39 \$1 100;
#X obj -58 112 outlet~;
#X obj -15 17 inlet;
#X obj -77 8 inlet;
#X connect 0 0 1 0;
#X connect 1 0 4 0;
#X connect 2 0 1 1;
#X connect 3 0 2 0;
#X connect 5 0 3 0;
#X connect 6 0 0 0;
#X restore 56 334 pd o1;
#N canvas 3 128 450 300 o2 0;
#X obj -59 83 *~;
#X obj -44 61 line~;
#X msg -15 39 \$1 100;
#X obj -58 112 outlet~;
#X obj -15 17 inlet;
#X obj -75 34 osc~ 165;
#X connect 0 0 3 0;
#X connect 1 0 0 1;
#X connect 2 0 1 0;
#X connect 4 0 2 0;
#X connect 5 0 0 0;
#X restore 92 334 pd o2;
#N canvas 296 212 450 300 o3 0;
#X obj -59 83 *~;
#X obj -44 61 line~;
#X msg -15 39 \$1 100;
#X obj -58 112 outlet~;
#X obj -15 17 inlet;
#X obj -75 34 osc~ 220;
#X obj -76 6 * 3;
#X obj -75 -21 inlet;
#X connect 0 0 3 0;
#X connect 1 0 0 1;
#X connect 2 0 1 0;
#X connect 4 0 2 0;
#X connect 5 0 0 0;
#X connect 6 0 5 0;
#X connect 7 0 6 0;
#X restore 128 334 pd o3;
#N canvas 5 182 450 300 o4 0;
#X obj -59 83 *~;
#X obj -44 61 line~;
#X msg -15 39 \$1 100;
#X obj -58 112 outlet~;
#X obj -15 17 inlet;
#X obj -75 33 osc~ 330;
#X connect 0 0 3 0;
#X connect 1 0 0 1;
#X connect 2 0 1 0;
#X connect 4 0 2 0;
#X connect 5 0 0 0;
#X restore 164 334 pd o4;
#N canvas 173 191 450 300 o5 0;
#X obj -59 83 *~;
#X obj -44 61 line~;
#X msg -15 39 \$1 100;
#X obj -58 112 outlet~;
#X obj -15 17 inlet;
#X obj -75 34 osc~ 440;
#X connect 0 0 3 0;
#X connect 1 0 0 1;
#X connect 2 0 1 0;
#X connect 4 0 2 0;
#X connect 5 0 0 0;
#X restore 201 335 pd o5;
#N canvas 4 155 450 300 o6 0;
#X obj -59 83 *~;
#X obj -44 61 line~;
#X msg -15 39 \$1 100;
#X obj -58 112 outlet~;
#X obj -15 17 inlet;
#X obj -75 34 osc~ 660;
#X connect 0 0 3 0;
#X connect 1 0 0 1;
#X connect 2 0 1 0;
#X connect 4 0 2 0;
#X connect 5 0 0 0;
#X restore 237 335 pd o6;
#N canvas 4 155 450 300 o7 0;
#X obj -59 83 *~;
#X obj -44 61 line~;
#X msg -15 39 \$1 100;
#X obj -58 112 outlet~;
#X obj -15 17 inlet;
#X obj -75 34 osc~ 880;
#X connect 0 0 3 0;
#X connect 1 0 0 1;
#X connect 2 0 1 0;
#X connect 4 0 2 0;
#X connect 5 0 0 0;
#X restore 273 335 pd o7;
#N canvas 5 182 450 300 o8 0;
#X obj -59 83 *~;
#X obj -44 61 line~;
#X msg -15 39 \$1 100;
#X obj -58 112 outlet~;
#X obj -15 17 inlet;
#X obj -75 34 osc~ 1320;
#X connect 0 0 3 0;
#X connect 1 0 0 1;
#X connect 2 0 1 0;
#X connect 4 0 2 0;
#X connect 5 0 0 0;
#X restore 309 335 pd o8;
#X obj 372 248 unpack f f f f f;
#X obj 312 415 line~;
#X obj 143 422 *~;
#X msg 313 391 \$1 10;
#X obj 402 298 * -1;
#X obj 403 325 autoscale 0 1;
#X floatatom 403 355 5 0 0 0 - - -;
#X connect 0 0 1 0;
#X connect 0 0 14 0;
#X connect 0 1 3 0;
#X connect 0 2 5 0;
#X connect 0 2 23 0;
#X connect 0 3 7 0;
#X connect 0 4 9 0;
#X connect 1 0 2 0;
#X connect 3 0 4 0;
#X connect 5 0 6 0;
#X connect 7 0 8 0;
#X connect 9 0 10 0;
#X connect 13 0 12 0;
#X connect 14 0 15 1;
#X connect 14 1 16 0;
#X connect 14 2 17 1;
#X connect 14 3 18 0;
#X connect 14 4 19 0;
#X connect 14 5 20 0;
#X connect 14 6 21 0;
#X connect 14 7 22 0;
#X connect 15 0 25 0;
#X connect 16 0 25 0;
#X connect 17 0 25 0;
#X connect 18 0 25 0;
#X connect 19 0 25 0;
#X connect 20 0 25 0;
#X connect 21 0 25 0;
#X connect 22 0 25 0;
#X connect 23 1 27 0;
#X connect 24 0 25 1;
#X connect 25 0 11 0;
#X connect 25 0 11 1;
#X connect 26 0 24 0;
#X connect 27 0 28 0;
#X connect 28 0 26 0;
#X connect 28 0 29 0;
