#N canvas 1 74 1265 666 24;
#X obj 100 121 toscolino;
#X obj 282 192 prepend set;
#X msg 352 268 jx2 128;
#X floatatom 89 167 5 0 0 0 - - -;
#X obj 77 269 toscoescalas;
#X floatatom 259 592 0 0 100 0 - - -;
#N canvas 160 74 532 285 output 0;
#X obj 338 160 t b;
#X obj 338 110 f;
#X obj 338 60 inlet;
#X text 344 29 mute;
#X obj 338 185 f;
#X msg 426 180 0;
#X msg 338 85 bang;
#X obj 338 135 moses 1;
#X obj 397 110 moses 1;
#X obj 83 148 dbtorms;
#X obj 397 85 r master-lvl;
#X obj 83 42 r master-lvl;
#X obj 338 210 s master-lvl;
#X obj 20 155 inlet~;
#X obj 199 41 inlet;
#X text 199 18 level;
#X obj 199 105 s master-lvl;
#X msg 96 65 set \$1;
#X obj 96 90 outlet;
#X msg 214 65 \; pd dsp 1;
#X obj 83 198 line~;
#X obj 20 207 *~;
#X obj 20 232 dac~;
#X obj 83 173 pack 0 50;
#X text 20 132 audio;
#X text 96 114 show level;
#X obj 426 155 t b;
#X obj 20 181 hip~ 1;
#X connect 0 0 4 0;
#X connect 1 0 7 0;
#X connect 2 0 6 0;
#X connect 4 0 12 0;
#X connect 5 0 12 0;
#X connect 6 0 1 0;
#X connect 7 0 0 0;
#X connect 7 1 26 0;
#X connect 8 1 4 1;
#X connect 9 0 23 0;
#X connect 10 0 1 1;
#X connect 10 0 8 0;
#X connect 11 0 9 0;
#X connect 11 0 17 0;
#X connect 13 0 27 0;
#X connect 14 0 16 0;
#X connect 14 0 19 0;
#X connect 17 0 18 0;
#X connect 20 0 21 1;
#X connect 21 0 22 0;
#X connect 21 0 22 1;
#X connect 23 0 20 0;
#X connect 26 0 5 0;
#X connect 27 0 21 0;
#X restore 176 677 pd output;
#X msg 529 641 MUTE;
#X floatatom 87 409 4 0 0 0 - - -;
#X floatatom 129 520 4 0 0 0 - - -;
#X obj 86 471 *~;
#X floatatom 135 471 4 0 0 0 - - -;
#X obj 86 519 +~;
#X obj 86 551 osc~;
#X obj 193 469 / 3;
#X obj 94 364 mtof;
#X obj 739 79 table table1;
#X obj 124 433 tabosc4~ table1;
#X obj 140 216 sel 0;
#X obj 361 395 route jx1 jx2;
#X floatatom 649 395 4 0 0 0 - - -;
#X floatatom 691 506 4 0 0 0 - - -;
#X obj 648 457 *~;
#X floatatom 697 457 4 0 0 0 - - -;
#X obj 648 505 +~;
#X obj 648 537 osc~;
#X obj 656 350 mtof;
#X obj 710 395 tabosc4~ table2;
#X obj 918 80 table table2;
#X obj 451 324 + 5;
#X obj 755 455 / 5;
#X obj 90 597 *~;
#X obj 433 611 *~;
#N canvas 6 209 450 441 j 0;
#X obj -281 268 line~;
#X msg -281 231 \$1 100;
#X obj -291 54 - 128;
#X obj -278 152 abs;
#X obj -276 192 / 128;
#X obj -282 310 outlet~;
#X obj -291 13 inlet;
#X obj -275 103 moses 0;
#X msg -166 233 \$1 100;
#X obj -161 194 / 128;
#X floatatom -76 47 5 0 0 0 - - -;
#X obj -63 108 sel 0;
#X msg -56 154 0;
#X obj -167 270 line~;
#X obj -167 313 outlet~;
#X connect 0 0 5 0;
#X connect 1 0 0 0;
#X connect 2 0 7 0;
#X connect 2 0 11 0;
#X connect 3 0 4 0;
#X connect 4 0 1 0;
#X connect 6 0 2 0;
#X connect 6 0 10 0;
#X connect 7 0 3 0;
#X connect 7 1 9 0;
#X connect 8 0 13 0;
#X connect 9 0 8 0;
#X connect 11 0 12 0;
#X connect 12 0 8 0;
#X connect 12 0 1 0;
#X connect 13 0 14 0;
#X restore 449 463 pd j;
#X obj 529 526 *~;
#X obj 979 288 table table3;
#X floatatom 829 490 4 0 0 0 - - -;
#X floatatom 880 600 4 0 0 0 - - -;
#X obj 828 600 +~;
#X obj 839 645 osc~;
#X obj 836 445 mtof;
#X obj 1003 553 / 5;
#X msg 171 314 59;
#X obj 890 490 tabosc4~ table3;
#X msg 740 130 \; table1 sinesum 512 0.5 0.5 0.5 0.5 \; table2 cosinesum
512 0 0.1 \; table3 sinesum 512 0 0.5 1 -1 \;;
#N canvas 7 236 450 441 j 0;
#X obj -281 268 line~;
#X msg -281 231 \$1 100;
#X obj -291 54 - 128;
#X obj -278 152 abs;
#X obj -276 192 / 128;
#X obj -282 310 outlet~;
#X obj -291 13 inlet;
#X obj -275 103 moses 0;
#X msg -166 233 \$1 100;
#X obj -161 194 / 128;
#X floatatom -76 47 5 0 0 0 - - -;
#X obj -63 108 sel 0;
#X msg -56 154 0;
#X obj -167 270 line~;
#X obj -167 313 outlet~;
#X connect 0 0 5 0;
#X connect 1 0 0 0;
#X connect 2 0 7 0;
#X connect 2 0 11 0;
#X connect 3 0 4 0;
#X connect 4 0 1 0;
#X connect 6 0 2 0;
#X connect 6 0 10 0;
#X connect 7 0 3 0;
#X connect 7 1 9 0;
#X connect 8 0 13 0;
#X connect 9 0 8 0;
#X connect 11 0 12 0;
#X connect 12 0 8 0;
#X connect 12 0 1 0;
#X connect 13 0 14 0;
#X restore 307 476 pd j;
#X obj 522 305 + 4;
#X obj 327 143 + 7;
#X obj 348 547 *~;
#X obj 828 551 *~ 120;
#N canvas 1 74 450 300 toscosc~ 0;
#X floatatom 38 -13 4 0 0 0 - - -;
#X floatatom 89 97 4 0 0 0 - - -;
#X obj 37 97 +~;
#X obj 48 142 osc~;
#X obj 45 -58 mtof;
#X obj 99 -13 tabosc4~ table3;
#X obj 37 48 *~ 120;
#X obj 49 184 outlet~;
#X obj 46 -96 inlet;
#X connect 0 0 5 0;
#X connect 1 0 2 1;
#X connect 2 0 3 0;
#X connect 3 0 7 0;
#X connect 4 0 0 0;
#X connect 5 0 6 0;
#X connect 6 0 2 0;
#X connect 8 0 4 0;
#X restore 548 231 pd toscosc~;
#X connect 0 0 3 0;
#X connect 0 1 1 0;
#X connect 0 1 19 0;
#X connect 1 0 2 0;
#X connect 3 0 4 0;
#X connect 3 0 18 0;
#X connect 4 0 15 0;
#X connect 4 0 29 0;
#X connect 4 0 46 0;
#X connect 4 0 47 0;
#X connect 5 0 6 1;
#X connect 6 0 5 0;
#X connect 7 0 6 2;
#X connect 8 0 14 0;
#X connect 8 0 17 0;
#X connect 9 0 12 1;
#X connect 10 0 12 0;
#X connect 11 0 10 1;
#X connect 12 0 13 0;
#X connect 13 0 31 0;
#X connect 14 0 9 0;
#X connect 15 0 8 0;
#X connect 17 0 10 0;
#X connect 18 0 42 0;
#X connect 19 0 45 0;
#X connect 19 1 33 0;
#X connect 20 0 27 0;
#X connect 20 0 30 0;
#X connect 21 0 24 1;
#X connect 22 0 24 0;
#X connect 23 0 22 1;
#X connect 24 0 25 0;
#X connect 25 0 32 0;
#X connect 26 0 20 0;
#X connect 27 0 22 0;
#X connect 29 0 26 0;
#X connect 30 0 21 0;
#X connect 31 0 6 0;
#X connect 32 0 6 0;
#X connect 33 0 32 1;
#X connect 33 1 34 1;
#X connect 34 0 6 0;
#X connect 36 0 41 0;
#X connect 36 0 43 0;
#X connect 37 0 38 1;
#X connect 38 0 39 0;
#X connect 39 0 34 0;
#X connect 40 0 36 0;
#X connect 41 0 37 0;
#X connect 42 0 15 0;
#X connect 43 0 49 0;
#X connect 45 0 31 1;
#X connect 45 1 48 1;
#X connect 46 0 40 0;
#X connect 47 0 50 0;
#X connect 48 0 6 0;
#X connect 49 0 38 0;
#X connect 50 0 48 0;
