#N canvas 3 76 1265 666 16;
#X obj 99 222 prepend set;
#X msg 114 261 0 0;
#X obj 222 161 prepend set;
#X msg 213 184 0 0 0 0 0;
#X obj 78 516 prepend set;
#X msg 69 539 0 0 0 0 0;
#X obj 441 32 prepend set;
#X msg 432 55 0 0;
#X obj 139 42 toscolino;
#X obj 327 530 ezdac~;
#X obj 490 185 unpack f f f f f f f f;
#X obj 189 336 unpack f f f f f;
#X obj 440 249 * 48;
#X obj 538 250 * 52;
#N canvas 1 68 1278 653 fuzzsynths 0;
#X obj 281 519 outlet~;
#X obj 278 351 catch~ out1;
#X obj 53 256 throw~ out1;
#X obj 95 43 r in1;
#X obj 127 70 r in2;
#X obj 144 97 r in3;
#X obj 160 127 r in4;
#X obj 180 154 r in5;
#X obj 52 13 inlet;
#X obj 247 257 throw~ out1;
#X obj 289 44 r in1;
#X obj 321 71 r in2;
#X obj 338 98 r in3;
#X obj 354 128 r in4;
#X obj 374 155 r in5;
#X obj 246 14 inlet;
#X obj 437 257 throw~ out1;
#X obj 479 44 r in1;
#X obj 511 71 r in2;
#X obj 528 98 r in3;
#X obj 544 128 r in4;
#X obj 564 155 r in5;
#X obj 436 14 inlet;
#X obj 631 258 throw~ out1;
#X obj 673 45 r in1;
#X obj 705 72 r in2;
#X obj 722 99 r in3;
#X obj 738 129 r in4;
#X obj 758 156 r in5;
#X obj 630 15 inlet;
#X obj 827 257 throw~ out1;
#X obj 869 44 r in1;
#X obj 901 71 r in2;
#X obj 918 98 r in3;
#X obj 921 126 r in4;
#X obj 954 155 r in5;
#X obj 826 14 inlet;
#X obj 1021 258 throw~ out1;
#X obj 1063 45 r in1;
#X obj 1095 72 r in2;
#X obj 1112 99 r in3;
#X obj 1128 129 r in4;
#X obj 1148 156 r in5;
#X obj 1020 15 inlet;
#X obj 1211 258 throw~ out1;
#X obj 1253 45 r in1;
#X obj 1285 72 r in2;
#X obj 1302 99 r in3;
#X obj 1318 129 r in4;
#X obj 1338 156 r in5;
#X obj 1210 15 inlet;
#X obj 1405 259 throw~ out1;
#X obj 1447 46 r in1;
#X obj 1479 73 r in2;
#X obj 1496 100 r in3;
#X obj 1512 130 r in4;
#X obj 1574 86 r in5;
#X obj 1404 16 inlet;
#X obj 1585 15 inlet;
#X obj 1652 16 inlet;
#X obj 1200 426 unpack f f f f f;
#X obj 1434 401 unpack f f f f f;
#X obj 1185 521 s in1;
#X obj 1247 521 s in2;
#X obj 1312 523 s in3;
#X obj 1371 521 s in4;
#X obj 1471 528 s in5;
#X obj 985 549 abs;
#X obj 984 581 / 127;
#X floatatom 984 611 5 0 0 0 - - -;
#X obj 433 418 hsl 128 15 0 1 0 0 empty empty empty -2 -8 0 10 -262144
-1 -1 0 1;
#X obj 285 412 *~ 0.5;
#X obj 53 214 fuzzdelaysynth~;
#X obj 247 215 fuzzdelaysynth~;
#X obj 437 215 fuzzdelaysynth~;
#X obj 631 216 fuzzdelaysynth~;
#X obj 827 215 fuzzdelaysynth~;
#X obj 1021 216 fuzzdelaysynth~;
#X obj 1211 216 fuzzdelaysynth~;
#X obj 1405 217 fuzzdelaysynth~;
#X obj 1531 529 s in6;
#X obj 1614 123 r in6;
#X obj 1300 19 r in6;
#X obj 1587 186 +;
#X floatatom 1593 224 5 0 0 0 - - -;
#X obj 1580 342 spigot;
#X obj 1417 441 tgl 15 0 empty empty empty 17 7 0 10 -262144 -1 -1
0 1;
#X obj 1573 436 +;
#X floatatom 1591 502 5 0 0 0 - - -;
#X obj 1615 386 s pjoy;
#X obj 559 451 r pjoy;
#X obj 1571 464 autoscale 24 72;
#X floatatom 563 520 5 0 0 0 - - -;
#X obj 561 486 - 36;
#N canvas 2 101 771 619 pshifter 0;
#X floatatom 19 87 0 0 0 0 - - -;
#X obj 82 358 *~;
#X obj 205 295 line~;
#X floatatom 237 112 0 0 0 0 - - -;
#X obj 205 269 pack 0 200;
#X obj 237 76 r window;
#X obj 16 9 r transpose;
#X obj 19 143 exp;
#X floatatom 19 169 6 0 0 0 - - -;
#X obj 19 259 /;
#X obj 146 189 * 0.001;
#X obj 314 365 line~;
#X obj 314 340 pack 0 200;
#X floatatom 314 289 0 0 0 0 - - -;
#X obj 314 263 r delay;
#X obj 82 384 +~;
#X obj 19 410 cos~;
#X obj 19 437 *~;
#X obj 19 466 +~;
#X obj 106 317 wrap~;
#X obj 251 360 *~;
#X obj 251 393 +~;
#X obj 188 420 cos~;
#X obj 188 447 *~;
#X msg 492 56 \; transpose 0 \; window 100 \; delay 0;
#X obj 492 30 loadbang;
#X obj 146 216 t b f;
#X floatatom 19 285 6 0 0 0 - - -;
#X obj 106 290 +~ 0.5;
#X obj 19 358 -~ 0.5;
#X obj 19 384 *~ 0.5;
#X obj 188 359 -~ 0.5;
#X obj 188 392 *~ 0.5;
#X obj 19 196 - 1;
#X obj 19 117 * 0.05776;
#X obj 19 222 * -1;
#X text 53 86 <-- transposition;
#X text 96 99 (halftones);
#X text 82 163 speed;
#X text 81 177 change;
#X text 281 111 <--window (msec);
#X text 54 252 tape head;
#X obj 19 316 phasor~;
#X obj 314 316 max 1.5;
#X text 317 222 delay;
#X text 314 240 (msec);
#X obj 237 139 max 1;
#X text 55 265 rotation freq;
#X obj 82 410 vd~ G09-del;
#X obj 251 422 vd~ G09-del;
#X obj 264 42 delwrite~ G09-del 5000;
#X obj 264 3 inlet~;
#X obj 72 51 inlet;
#X obj 20 501 outlet~;
#X connect 0 0 34 0;
#X connect 1 0 15 0;
#X connect 2 0 1 1;
#X connect 2 0 20 1;
#X connect 3 0 46 0;
#X connect 4 0 2 0;
#X connect 5 0 3 0;
#X connect 6 0 0 0;
#X connect 7 0 8 0;
#X connect 8 0 33 0;
#X connect 9 0 27 0;
#X connect 10 0 26 0;
#X connect 11 0 15 1;
#X connect 11 0 21 1;
#X connect 12 0 11 0;
#X connect 13 0 43 0;
#X connect 14 0 13 0;
#X connect 15 0 48 0;
#X connect 16 0 17 0;
#X connect 17 0 18 0;
#X connect 18 0 53 0;
#X connect 19 0 20 0;
#X connect 19 0 31 0;
#X connect 20 0 21 0;
#X connect 21 0 49 0;
#X connect 22 0 23 0;
#X connect 23 0 18 1;
#X connect 25 0 24 0;
#X connect 26 0 9 0;
#X connect 26 1 9 1;
#X connect 27 0 42 0;
#X connect 28 0 19 0;
#X connect 29 0 30 0;
#X connect 30 0 16 0;
#X connect 31 0 32 0;
#X connect 32 0 22 0;
#X connect 33 0 35 0;
#X connect 34 0 7 0;
#X connect 35 0 9 0;
#X connect 42 0 1 0;
#X connect 42 0 29 0;
#X connect 42 0 28 0;
#X connect 43 0 12 0;
#X connect 46 0 10 0;
#X connect 46 0 4 0;
#X connect 48 0 17 1;
#X connect 49 0 23 1;
#X connect 51 0 50 0;
#X connect 52 0 0 0;
#X restore 289 471 pd pshifter;
#X obj 266 122 r;
#X obj 408 300 sel 0;
#X msg 468 316 0.5;
#X msg 408 327 0;
#X msg 406 352 \$1 1000;
#X obj 430 385 line;
#X msg 139 344 47;
#X obj 151 379 + 12;
#X obj 201 380 - 12;
#X obj 1098 473 sel 1;
#X obj 1094 505 bng 15 250 50 0 empty empty empty 17 7 0 10 -262144
-1 -1;
#X obj 44 154 change;
#X obj 245 88 change;
#X obj 425 99 change;
#X obj 628 102 change;
#X obj 827 104 change;
#X obj 1020 133 change;
#X obj 1211 127 change;
#X connect 1 0 71 0;
#X connect 3 0 72 1;
#X connect 4 0 72 2;
#X connect 5 0 72 2;
#X connect 6 0 72 3;
#X connect 7 0 72 4;
#X connect 8 0 106 0;
#X connect 10 0 73 1;
#X connect 11 0 73 2;
#X connect 12 0 73 2;
#X connect 13 0 73 3;
#X connect 14 0 73 4;
#X connect 15 0 107 0;
#X connect 17 0 74 1;
#X connect 17 0 74 4;
#X connect 18 0 74 2;
#X connect 19 0 74 2;
#X connect 20 0 74 3;
#X connect 21 0 74 4;
#X connect 21 0 74 1;
#X connect 22 0 108 0;
#X connect 24 0 75 1;
#X connect 25 0 75 2;
#X connect 25 0 75 1;
#X connect 26 0 75 2;
#X connect 27 0 75 3;
#X connect 27 0 75 1;
#X connect 28 0 75 4;
#X connect 29 0 109 0;
#X connect 31 0 76 1;
#X connect 32 0 76 2;
#X connect 33 0 76 2;
#X connect 34 0 76 3;
#X connect 35 0 76 4;
#X connect 36 0 110 0;
#X connect 38 0 77 1;
#X connect 39 0 77 2;
#X connect 40 0 77 2;
#X connect 41 0 77 3;
#X connect 41 0 77 1;
#X connect 42 0 77 4;
#X connect 43 0 111 0;
#X connect 45 0 78 1;
#X connect 46 0 78 2;
#X connect 47 0 78 2;
#X connect 48 0 78 3;
#X connect 49 0 78 4;
#X connect 50 0 112 0;
#X connect 52 0 79 1;
#X connect 53 0 79 2;
#X connect 54 0 79 2;
#X connect 55 0 79 3;
#X connect 56 0 83 0;
#X connect 57 0 79 0;
#X connect 58 0 60 0;
#X connect 59 0 61 0;
#X connect 60 0 104 0;
#X connect 60 1 62 0;
#X connect 60 2 63 0;
#X connect 60 3 64 0;
#X connect 60 4 65 0;
#X connect 61 0 86 0;
#X connect 61 1 66 0;
#X connect 61 2 80 0;
#X connect 61 3 87 0;
#X connect 61 4 87 1;
#X connect 67 0 68 0;
#X connect 68 0 69 0;
#X connect 70 0 71 1;
#X connect 71 0 94 1;
#X connect 71 0 0 0;
#X connect 72 0 2 0;
#X connect 73 0 9 0;
#X connect 74 0 16 0;
#X connect 75 0 23 0;
#X connect 76 0 30 0;
#X connect 77 0 37 0;
#X connect 78 0 44 0;
#X connect 79 0 51 0;
#X connect 81 0 83 1;
#X connect 82 0 78 3;
#X connect 82 0 78 1;
#X connect 83 0 84 0;
#X connect 83 0 79 4;
#X connect 85 0 88 0;
#X connect 85 0 89 0;
#X connect 86 0 85 1;
#X connect 87 0 91 0;
#X connect 90 0 93 0;
#X connect 91 0 85 0;
#X connect 93 0 92 0;
#X connect 93 0 94 0;
#X connect 94 0 0 0;
#X connect 96 0 98 0;
#X connect 96 1 97 0;
#X connect 97 0 99 0;
#X connect 98 0 99 0;
#X connect 99 0 100 0;
#X connect 100 0 70 0;
#X connect 101 0 72 0;
#X connect 101 0 102 0;
#X connect 101 0 103 0;
#X connect 102 0 73 0;
#X connect 103 0 74 0;
#X connect 104 0 105 0;
#X connect 105 0 101 0;
#X connect 106 0 72 0;
#X connect 107 0 73 0;
#X connect 108 0 74 0;
#X connect 109 0 75 0;
#X connect 110 0 76 0;
#X connect 111 0 77 0;
#X connect 112 0 78 0;
#X restore 473 459 pd fuzzsynths;
#X obj 286 254 s joy1;
#X obj 381 159 s joy2;
#X obj 718 388 r joy1;
#X obj 797 389 r joy2;
#X obj 487 249 * 51;
#X obj 587 250 * 54;
#X obj 594 99 prepend set;
#X msg 609 138 0 0 0 0 0 0 0 0;
#X obj 634 251 * 55;
#X obj 683 252 * 57;
#X obj 855 471 i;
#X obj 910 363 t b;
#X floatatom 774 439 5 0 0 0 - - -;
#X obj 884 403 + 7;
#X obj 727 251 * 59;
#X obj 779 249 * 62;
#N canvas 12 181 1169 559 tablaloop 0;
#X obj 494 164 soundfiler;
#X floatatom 83 312 5 0 0 0 - - -;
#X obj 83 336 / 100;
#X obj 22 273 tabread4~ sample;
#X obj 22 304 *~;
#X floatatom 99 91 5 0 0 0 - - -;
#X obj 141 133 mtosr 44100;
#X msg 190 95 44100;
#X floatatom 336 203 5 0 0 0 - - -;
#X floatatom 193 203 6 0 0 0 - - -;
#X floatatom 259 203 6 0 0 0 - - -;
#X msg 138 312 70;
#X obj 170 312 loadbang;
#X text 186 159 loopstart;
#X text 256 160 loopend;
#X text 333 161 startpos;
#X obj 141 237 susloop~ 4000 12000;
#X floatatom 494 189 5 0 0 0 - - -;
#X obj 456 322 hsl 200 15 0 1 0 0 empty empty loop_end 10 8 0 8 -233017
-1 -1 9950 0;
#X obj 264 388 *;
#X obj 307 388 *;
#X obj 307 412 int;
#X obj 264 412 int;
#X obj 545 189 s filesize;
#X obj 280 324 r filesize;
#X obj 243 439 s lstart;
#X obj 307 438 s lend;
#X obj 259 179 r lend;
#X obj 193 181 r lstart;
#X obj 456 339 hsl 200 15 0 1 0 0 empty empty start 10 8 0 8 -262144
-1 -1 0 0;
#X obj 360 390 *;
#X obj 360 414 int;
#X obj 360 439 s start;
#X obj 336 179 r start;
#X obj 190 70 loadbang;
#X obj 578 266 table sample;
#X obj 456 304 hsl 200 15 0 1 0 0 empty empty loop_start 10 8 0 8 -195568
-33289 -33289 0 0;
#X obj 22 396 outlet~;
#X msg 494 138 read -resize ../soundfonts/tabla.wav sample;
#X obj 497 104 loadbang;
#X obj 107 57 inlet;
#X obj 437 227 inlet;
#X obj 509 228 inlet;
#X connect 0 0 17 0;
#X connect 0 0 23 0;
#X connect 1 0 2 0;
#X connect 2 0 4 1;
#X connect 3 0 4 0;
#X connect 4 0 37 0;
#X connect 5 0 6 0;
#X connect 6 0 16 0;
#X connect 7 0 16 0;
#X connect 8 0 16 3;
#X connect 9 0 16 1;
#X connect 10 0 16 2;
#X connect 11 0 2 0;
#X connect 12 0 11 0;
#X connect 16 0 3 0;
#X connect 18 0 20 0;
#X connect 19 0 22 0;
#X connect 20 0 21 0;
#X connect 21 0 26 0;
#X connect 22 0 25 0;
#X connect 24 0 19 1;
#X connect 24 0 20 1;
#X connect 24 0 30 1;
#X connect 27 0 10 0;
#X connect 28 0 9 0;
#X connect 29 0 30 0;
#X connect 30 0 31 0;
#X connect 31 0 32 0;
#X connect 33 0 8 0;
#X connect 34 0 7 0;
#X connect 36 0 19 0;
#X connect 38 0 0 0;
#X connect 39 0 38 0;
#X connect 40 0 5 0;
#X connect 41 0 36 0;
#X connect 42 0 18 0;
#X restore 270 480 pd tablaloop;
#X obj 249 386 r joy1;
#X obj 328 387 r joy2;
#X obj 205 423 unpack f f f f f;
#X obj 244 544 / 127;
#X obj 244 574 / 2;
#X floatatom 265 620 5 0 0 0 - - -;
#X obj 485 534 unpack f f f f f;
#X floatatom 523 568 5 0 0 0 - - -;
#X floatatom 581 593 5 0 0 0 - - -;
#X obj 462 590 / 127;
#X obj 804 586 expr;
#X obj 611 489 change;
#X obj 348 604 change;
#X obj 119 581 / 127;
#X obj 87 617 * 12;
#X obj 126 629 + 60;
#X floatatom 714 549 5 0 0 0 - - -;
#X obj 461 620 / 2;
#X obj 517 633 + 0.5;
#X obj 71 397 +;
#X obj 69 430 - 127;
#X connect 0 0 1 0;
#X connect 2 0 3 0;
#X connect 4 0 5 0;
#X connect 6 0 7 0;
#X connect 8 0 10 0;
#X connect 8 0 21 0;
#X connect 8 1 0 0;
#X connect 8 2 2 0;
#X connect 8 2 11 0;
#X connect 8 2 15 0;
#X connect 8 3 4 0;
#X connect 8 3 16 0;
#X connect 8 4 6 0;
#X connect 10 0 12 0;
#X connect 10 1 19 0;
#X connect 10 2 13 0;
#X connect 10 3 20 0;
#X connect 10 4 23 0;
#X connect 10 5 24 0;
#X connect 10 6 29 0;
#X connect 10 7 30 0;
#X connect 12 0 14 0;
#X connect 13 0 14 2;
#X connect 14 0 9 0;
#X connect 14 0 9 1;
#X connect 17 0 14 8;
#X connect 18 0 14 9;
#X connect 19 0 14 1;
#X connect 20 0 14 3;
#X connect 21 0 22 0;
#X connect 23 0 14 4;
#X connect 23 0 26 0;
#X connect 23 0 28 0;
#X connect 24 0 14 5;
#X connect 24 0 26 0;
#X connect 24 0 28 0;
#X connect 26 0 25 0;
#X connect 27 0 25 0;
#X connect 28 0 25 1;
#X connect 29 0 14 6;
#X connect 29 0 26 0;
#X connect 29 0 28 0;
#X connect 30 0 14 7;
#X connect 30 0 26 0;
#X connect 30 0 28 0;
#X connect 31 0 9 0;
#X connect 32 0 34 0;
#X connect 33 0 38 0;
#X connect 34 2 35 0;
#X connect 34 3 51 0;
#X connect 34 4 51 1;
#X connect 35 0 36 0;
#X connect 36 0 37 0;
#X connect 36 0 44 0;
#X connect 38 1 39 0;
#X connect 38 1 41 0;
#X connect 38 2 40 0;
#X connect 41 0 49 0;
#X connect 43 0 31 2;
#X connect 43 0 48 0;
#X connect 44 0 31 1;
#X connect 45 0 46 0;
#X connect 46 0 47 0;
#X connect 47 0 31 0;
#X connect 49 0 50 0;
#X connect 50 0 43 0;
#X connect 51 0 52 0;
#X connect 52 0 45 0;
