#N canvas 189 173 450 502 10;
#X floatatom 55 435 0 0 0 0 - - -;
#N canvas 0 0 454 304 cpu 0;
#X obj 61 159 cputime;
#X obj 61 19 loadbang;
#X obj 61 103 metro 1000;
#X msg 61 47 1;
#X floatatom 61 75 0 0 0 0 - - -;
#X obj 61 131 t b b;
#X obj 61 219 * 0.1;
#X obj 61 188 int;
#X text 106 75 <-- on/off;
#X obj 61 246 outlet;
#X connect 0 0 7 0;
#X connect 1 0 3 0;
#X connect 2 0 5 0;
#X connect 3 0 4 0;
#X connect 4 0 2 0;
#X connect 5 0 0 0;
#X connect 5 1 0 1;
#X connect 6 0 9 0;
#X connect 7 0 6 0;
#X restore 55 409 pd cpu;
#X msg 103 437 \; pd dsp 1 \;;
#X obj 103 409 loadbang;
#N canvas 0 0 450 300 (subpatch) 0;
#X array \$0-corda 3000 float 0;
#X coords 0 1 2999 -1 150 100 1;
#X restore 117 113 graph;
#X obj 307 254 metro 100;
#X obj 307 228 tgl 15 0 empty empty empty 0 -6 0 8 -262144 -1 -1 0
1;
#X obj 333 231 loadbang;
#X obj 117 68 line~;
#X msg 193 38 0.05 \, 0 1;
#X text 190 70 <- send a force to a point of the string;
#X obj 109 11 inlet;
#X msg 101 38 \$1 \, 0 1;
#X obj 307 279 tabwrite~ \$0-corda;
#X obj 27 341 outlet~;
#X obj 49 302 toscolino-pshift~;
#X obj 386 25 inlet;
#X obj 24 204 hip~ 20;
#N canvas 1 53 531 530 corde 0;
#X obj 86 32 t b b b b;
#X msg 143 71 reset;
#X obj 92 4 inlet;
#X obj 141 409 outlet;
#X obj 72 270 pack f f;
#X obj 83 200 t f f;
#X obj 108 223 + 1;
#X text 254 75 number of masss on the string;
#X obj 144 220 + 1;
#X obj 104 112 + 1;
#N canvas 0 0 454 304 uzi 0;
#X obj 70 50 inlet;
#X obj 70 154 f;
#X obj 95 129 + 1;
#X msg 67 103 0;
#X obj 71 199 moses;
#X obj 69 74 t b f;
#X obj 71 232 outlet;
#X connect 0 0 5 0;
#X connect 1 0 4 0;
#X connect 2 0 1 0;
#X connect 3 0 1 0;
#X connect 4 0 2 0;
#X connect 4 0 6 0;
#X connect 5 0 3 0;
#X connect 5 1 4 1;
#X restore 83 160 pd uzi;
#N canvas 0 0 454 304 uzi 0;
#X obj 70 50 inlet;
#X obj 70 154 f;
#X obj 95 129 + 1;
#X msg 67 103 0;
#X obj 71 199 moses;
#X obj 69 74 t b f;
#X obj 71 232 outlet;
#X connect 0 0 5 0;
#X connect 1 0 4 0;
#X connect 2 0 1 0;
#X connect 3 0 1 0;
#X connect 4 0 2 0;
#X connect 4 0 6 0;
#X connect 5 0 3 0;
#X connect 5 1 4 1;
#X restore 138 156 pd uzi;
#X obj 137 127 20;
#X obj 86 136 21;
#X obj 109 244 % 21;
#X msg 221 78 50;
#X msg 149 181 mass 20 1;
#X msg 69 297 link \$1 \$2 0.1 0.03;
#X msg 204 360 inForce 0 3 1;
#X msg 206 332 outPos 0 7 1;
#X connect 0 0 19 0;
#X connect 0 0 18 0;
#X connect 0 1 13 0;
#X connect 0 2 12 0;
#X connect 0 3 1 0;
#X connect 1 0 3 0;
#X connect 2 0 0 0;
#X connect 4 0 17 0;
#X connect 5 0 4 0;
#X connect 5 1 6 0;
#X connect 6 0 14 0;
#X connect 8 0 14 1;
#X connect 9 0 13 1;
#X connect 10 0 5 0;
#X connect 11 0 16 0;
#X connect 12 0 11 0;
#X connect 13 0 10 0;
#X connect 14 0 4 1;
#X connect 15 0 8 0;
#X connect 15 0 9 0;
#X connect 15 0 12 1;
#X connect 16 0 3 0;
#X connect 17 0 3 0;
#X connect 18 0 3 0;
#X connect 19 0 3 0;
#X restore 25 129 pd corde;
#X obj 25 107 bng 15 250 50 0 empty empty empty 0 -6 0 8 -262144 -1
-1;
#X obj 25 155 pmpd~ 1 1;
#X obj 42 107 loadbang;
#X obj 25 179 *~ 0.7;
#X connect 1 0 0 0;
#X connect 3 0 2 0;
#X connect 5 0 13 0;
#X connect 6 0 5 0;
#X connect 7 0 5 0;
#X connect 8 0 20 0;
#X connect 9 0 8 0;
#X connect 11 0 12 0;
#X connect 12 0 8 0;
#X connect 15 0 14 0;
#X connect 15 0 13 0;
#X connect 16 0 15 1;
#X connect 17 0 15 0;
#X connect 18 0 20 0;
#X connect 19 0 18 0;
#X connect 20 0 22 0;
#X connect 21 0 18 0;
#X connect 22 0 17 0;
#X coords 0 -1 1 1 180 120 2 100 100;
