#N canvas 1 74 1278 653 24;
#X declare -lib iemmatrix;
#X declare -lib iem_tab;
#X obj 80 -193 toscolino;
#X obj 79 136 mininvl;
#X obj 513 102 playlist all 400 300 {Helvetica 10 bold} #457782 yellow
black red;
#X msg 536 27 location /home/glerm/navalha/samples;
#X msg 184 45 slice \$1;
#X msg 323 80 wav \$1;
#X obj 261 306 ezdac~;
#X msg 503 -74 simetria 8;
#X msg 508 -33 random 8;
#X msg 702 -41 seek \$1;
#X floatatom 755 -167 5 0 0 0 - - -;
#X obj 565 -144 t b b f;
#X obj 49 -82 - 1;
#X obj 38 -32 deny -1;
#X obj 222 -5 s \$0-btn;
#X obj 919 -165 r \$0-btn;
#X obj 64 -145 moses 9;
#X obj 922 -102 sel 9;
#X msg 1079 -55 seq \$1;
#X obj 1079 -80 tgl 15 0 empty empty empty 17 7 0 10 -262144 -1 -1
0 2;
#X floatatom 830 -25 5 0 0 0 - - -;
#X obj 1090 -175 sel 10;
#X floatatom 1154 -9 5 0 0 0 - - -;
#X obj 1085 -123 counter 2;
#X obj 775 -83 sel 13;
#X obj 922 -54 counter 103;
#X msg 943 261 pitch \$1;
#X obj 205 -148 s \$0-j;
#X obj 1008 76 r \$0-j;
#X obj 956 188 - 128;
#X obj 953 227 autoscale -7 5;
#X obj 1006 140 route jx1 jx2 jy1 jy2;
#X obj 1081 269 - 128;
#X msg 1051 356 tempo \$1;
#X obj 1061 322 autoscale 60 240;
#X connect 0 0 16 0;
#X connect 0 1 27 0;
#X connect 1 3 6 0;
#X connect 1 4 6 1;
#X connect 2 1 5 0;
#X connect 3 0 2 0;
#X connect 4 0 1 1;
#X connect 5 0 1 1;
#X connect 7 0 1 1;
#X connect 8 0 1 1;
#X connect 9 0 2 0;
#X connect 10 0 11 0;
#X connect 11 0 8 0;
#X connect 11 1 7 0;
#X connect 11 2 9 0;
#X connect 12 0 13 0;
#X connect 13 0 4 0;
#X connect 15 0 17 0;
#X connect 15 0 20 0;
#X connect 15 0 21 0;
#X connect 15 0 24 0;
#X connect 16 0 12 0;
#X connect 16 1 14 0;
#X connect 17 0 25 0;
#X connect 18 0 1 1;
#X connect 19 0 18 0;
#X connect 21 0 23 0;
#X connect 23 0 19 0;
#X connect 23 0 22 0;
#X connect 24 0 8 0;
#X connect 25 0 10 0;
#X connect 26 0 1 1;
#X connect 28 0 31 0;
#X connect 29 0 30 0;
#X connect 30 0 26 0;
#X connect 31 0 29 0;
#X connect 31 2 32 0;
#X connect 32 0 34 0;
#X connect 33 0 1 1;
#X connect 34 0 33 0;
