#N canvas 0 74 800 471 24;
#X obj -98 219 prepend set;
#X msg -107 242 0 0 0 0 0 0 0 0;
#X obj 4 308 prepend set;
#X msg -5 331 0 0;
#X obj 28 219 prepend set;
#X msg 19 242 0 127 0 127 0;
#X obj 110 290 prepend set;
#X msg 101 313 0 127 0 127 0;
#X obj 99 220 prepend set;
#X msg 126 251 0 0;
#X obj -35 149 toscolino;
#X obj 455 44 notein;
#X floatatom 457 111 5 0 0 0 - - -;
#X floatatom 577 145 5 0 0 0 - - -;
#X floatatom 595 104 5 0 0 0 - - -;
#X obj 346 382 dac~;
#X floatatom 340 143 5 0 0 0 - - -;
#X obj 324 192 osc~;
#X obj 160 35 metro 1000;
#X obj 163 11 tgl 15 0 empty empty empty 17 7 0 10 -262144 -1 -1 0
1;
#X floatatom 406 234 5 0 0 0 - - -;
#X obj 395 300 osc~;
#X obj 140 95 bng 15 250 50 0 empty empty empty 17 7 0 10 -262144 -1
-1;
#X obj 167 77 random 4;
#X obj 139 124 sel 0 1 2 3;
#X obj 147 177 bng 15 250 50 0 empty empty empty 17 7 0 10 -262144
-1 -1;
#X obj 181 184 bng 15 250 50 0 empty empty empty 17 7 0 10 -262144
-1 -1;
#X obj 215 172 bng 15 250 50 0 empty empty empty 17 7 0 10 -262144
-1 -1;
#X obj 257 174 bng 15 250 50 0 empty empty empty 17 7 0 10 -262144
-1 -1;
#X msg 351 52 440;
#X msg 347 91 220;
#X msg 351 13 330;
#X msg 411 6 660;
#X floatatom 222 -13 5 0 0 0 - - -;
#X obj 410 193 / 2;
#X floatatom 481 234 5 0 0 0 - - -;
#X obj 470 300 osc~;
#X obj 484 193 * 2;
#X obj -7 55 dsp;
#X obj -11 28 tgl 15 0 empty empty empty 17 7 0 10 -262144 -1 -1 0
1;
#X connect 0 0 1 0;
#X connect 2 0 3 0;
#X connect 4 0 5 0;
#X connect 6 0 7 0;
#X connect 8 0 9 0;
#X connect 10 0 0 0;
#X connect 10 1 2 0;
#X connect 10 2 4 0;
#X connect 10 3 6 0;
#X connect 10 4 8 0;
#X connect 11 0 12 0;
#X connect 11 1 13 0;
#X connect 11 2 14 0;
#X connect 16 0 17 0;
#X connect 16 0 34 0;
#X connect 16 0 37 0;
#X connect 17 0 15 0;
#X connect 17 0 15 1;
#X connect 18 0 22 0;
#X connect 18 0 23 0;
#X connect 19 0 18 0;
#X connect 20 0 21 0;
#X connect 21 0 15 0;
#X connect 21 0 15 1;
#X connect 23 0 24 0;
#X connect 24 0 25 0;
#X connect 24 1 26 0;
#X connect 24 2 27 0;
#X connect 24 3 28 0;
#X connect 25 0 29 0;
#X connect 26 0 30 0;
#X connect 27 0 31 0;
#X connect 28 0 32 0;
#X connect 29 0 16 0;
#X connect 30 0 16 0;
#X connect 31 0 16 0;
#X connect 32 0 16 0;
#X connect 33 0 18 1;
#X connect 34 0 20 0;
#X connect 35 0 36 0;
#X connect 36 0 15 0;
#X connect 36 0 15 1;
#X connect 37 0 35 0;
#X connect 39 0 38 0;
