#N canvas 1 74 1278 666 10;
#X obj 7 -17 cnv 15 700 20 empty empty toscolino 2 11 0 18 -203904
-45076 0;
#X obj 23 177 route key rel abs syn;
#X obj 40 105 hid 0;
#X obj 285 133 route abs_x abs_y abs_z abs_rx abs_ry abs_rz abs_throttle
;
#N canvas 108 318 543 264 route 0;
#X obj 27 14 inlet;
#X obj 72 226 outlet;
#X obj 19 226 outlet;
#X obj 172 226 outlet;
#X obj 222 204 symbol;
#X obj 222 226 outlet;
#X obj 272 204 symbol;
#X obj 272 226 outlet;
#X obj 322 204 symbol;
#X obj 322 226 outlet;
#X obj 372 204 symbol;
#X obj 372 226 outlet;
#X obj 122 225 outlet;
#X obj 422 204 symbol;
#X obj 422 226 outlet;
#X obj 472 204 symbol;
#X obj 472 226 outlet;
#X obj 26 63 route open device poll total product manufacturer transport
type vendorID productID;
#X connect 0 0 17 0;
#X connect 4 0 5 0;
#X connect 6 0 7 0;
#X connect 8 0 9 0;
#X connect 10 0 11 0;
#X connect 13 0 14 0;
#X connect 15 0 16 0;
#X connect 17 0 2 0;
#X connect 17 1 1 0;
#X connect 17 2 12 0;
#X connect 17 3 3 0;
#X connect 17 4 4 0;
#X connect 17 5 6 0;
#X connect 17 6 8 0;
#X connect 17 7 10 0;
#X connect 17 8 13 0;
#X connect 17 9 15 0;
#X restore 93 77 pd route info;
#N canvas 7 236 450 300 conta14 0;
#X obj 147 208 outlet;
#X obj 147 151 + 1;
#X msg 99 27 bang;
#X msg 56 105 stop;
#X obj 147 125 float;
#X obj 147 73 trigger bang bang;
#X msg 261 105 0;
#X obj 157 41 inlet;
#X obj 56 79 select 14;
#X obj 319 47 inlet;
#X obj 147 99 metro 10;
#X connect 1 0 4 1;
#X connect 1 0 0 0;
#X connect 1 0 8 0;
#X connect 2 0 5 0;
#X connect 3 0 10 0;
#X connect 4 0 1 0;
#X connect 5 0 10 0;
#X connect 5 1 6 0;
#X connect 6 0 4 1;
#X connect 7 0 5 0;
#X connect 8 0 3 0;
#X connect 9 0 3 0;
#X connect 10 0 4 0;
#X restore 30 38 pd conta14;
#X obj 94 102 sel 1;
#X obj 95 127 t b b;
#X msg 94 152 1;
#X obj 27 16 bng 15 250 50 0 empty empty empty 17 7 0 10 -262144 -1
-1;
#X obj 59 13 loadbang;
#X msg 41 76 open \$1;
#X obj 711 350 route abs_hat0x abs_hat0y;
#X obj 18 299 route btn_6 btn_4 btn_7 btn_0 btn_5 btn_3 btn_2 btn_1
;
#X obj 26 361 pack f f f f f f f f;
#X obj 26 400 outlet;
#N canvas 835 178 450 300 joystick1 0;
#X obj -230 74 moses 128;
#X obj -168 74 sel 128;
#X obj -230 103 f;
#X obj -309 73 route btn_11;
#X obj -91 76 moses 128;
#X obj -29 76 sel 128;
#X obj -91 105 f;
#X obj -311 44 inlet;
#X obj -226 45 inlet;
#X obj -91 46 inlet;
#X obj -310 126 outlet;
#X obj -232 129 outlet;
#X obj -89 132 outlet;
#X msg -120 76 127;
#X msg 19 78 127;
#X obj -187 130 - 128;
#X obj -185 158 outlet;
#X obj -44 133 - 128;
#X obj -43 161 outlet;
#X connect 0 0 2 0;
#X connect 0 1 1 0;
#X connect 0 1 15 0;
#X connect 1 0 13 0;
#X connect 2 0 11 0;
#X connect 3 0 10 0;
#X connect 4 0 6 0;
#X connect 4 1 5 0;
#X connect 4 1 17 0;
#X connect 5 0 14 0;
#X connect 6 0 12 0;
#X connect 7 0 3 0;
#X connect 8 0 0 0;
#X connect 9 0 4 0;
#X connect 13 0 2 0;
#X connect 14 0 6 0;
#X connect 15 0 16 0;
#X connect 17 0 18 0;
#X restore 522 311 pd joystick1;
#N canvas 829 205 450 300 joystick2 0;
#X obj -230 74 moses 128;
#X obj -168 74 sel 128;
#X obj -230 103 f;
#X obj -91 76 moses 128;
#X obj -29 76 sel 128;
#X obj -91 105 f;
#X obj -311 44 inlet;
#X obj -226 45 inlet;
#X obj -91 46 inlet;
#X obj -310 126 outlet;
#X obj -232 129 outlet;
#X obj -89 132 outlet;
#X msg -120 76 127;
#X msg 19 78 127;
#X obj -187 130 - 128;
#X obj -185 158 outlet;
#X obj -44 133 - 128;
#X obj -43 161 outlet;
#X obj -309 73 route btn_10;
#X connect 0 0 2 0;
#X connect 0 1 1 0;
#X connect 0 1 14 0;
#X connect 1 0 12 0;
#X connect 2 0 10 0;
#X connect 3 0 5 0;
#X connect 3 1 4 0;
#X connect 3 1 16 0;
#X connect 4 0 13 0;
#X connect 5 0 11 0;
#X connect 6 0 18 0;
#X connect 7 0 0 0;
#X connect 8 0 3 0;
#X connect 12 0 2 0;
#X connect 13 0 5 0;
#X connect 14 0 15 0;
#X connect 16 0 17 0;
#X connect 18 0 9 0;
#X restore 614 311 pd joystick2;
#X obj 327 360 route btn_9 btn_8;
#X obj 716 387 pack f f;
#X obj 328 399 pack f f;
#X obj 328 424 outlet;
#X obj 503 395 pack f f f f f;
#X obj 607 394 pack f f f f f;
#X obj 508 423 outlet;
#X obj 611 422 outlet;
#X obj 721 426 outlet;
#X obj 292 211 t b b b b b;
#X connect 1 0 13 0;
#X connect 1 2 3 0;
#X connect 2 0 1 0;
#X connect 2 0 27 0;
#X connect 2 1 4 0;
#X connect 3 0 17 1;
#X connect 3 1 17 2;
#X connect 3 3 16 1;
#X connect 3 5 16 2;
#X connect 3 7 12 0;
#X connect 4 0 6 0;
#X connect 5 0 11 0;
#X connect 6 0 7 0;
#X connect 7 0 8 0;
#X connect 7 1 5 1;
#X connect 8 0 2 0;
#X connect 9 0 5 0;
#X connect 10 0 5 0;
#X connect 11 0 2 0;
#X connect 12 0 19 0;
#X connect 12 1 19 1;
#X connect 13 0 14 0;
#X connect 13 1 14 1;
#X connect 13 2 14 2;
#X connect 13 3 14 3;
#X connect 13 4 14 4;
#X connect 13 5 14 5;
#X connect 13 6 14 6;
#X connect 13 7 14 7;
#X connect 13 8 16 0;
#X connect 13 8 17 0;
#X connect 13 8 18 0;
#X connect 14 0 15 0;
#X connect 16 0 22 0;
#X connect 16 1 22 1;
#X connect 16 2 22 2;
#X connect 16 3 22 3;
#X connect 16 4 22 4;
#X connect 17 0 23 0;
#X connect 17 1 23 1;
#X connect 17 2 23 2;
#X connect 17 3 23 3;
#X connect 17 4 23 4;
#X connect 18 0 20 0;
#X connect 18 1 20 1;
#X connect 19 0 26 0;
#X connect 20 0 21 0;
#X connect 22 0 24 0;
#X connect 23 0 25 0;
#X connect 27 0 14 0;
#X connect 27 1 20 0;
#X connect 27 2 22 0;
#X connect 27 3 23 0;
#X connect 27 4 19 0;
