#N canvas 1 76 1278 666 10;
#X obj 52 11 prepend set;
#X msg 43 34 0 0;
#X obj 274 158 prepend set;
#X msg 265 181 0 0;
#X obj 104 81 toscolino;
#X obj 530 35 unpack f f;
#N canvas 174 159 778 581 chaves 0;
#X obj 195 2 inlet;
#X obj 357 -45 inlet;
#X obj 103 445 outlet;
#X obj 358 40 == 1;
#X obj 183 38 == -1;
#X obj 402 39 == 1;
#X obj 226 38 == -1;
#N canvas 2 101 450 300 b2n-------------- 0;
#X obj 586 97 & 1;
#X obj 188 60 inlet;
#X obj 257 59 inlet;
#X obj 312 62 inlet;
#X obj 387 64 inlet;
#X obj 455 58 inlet;
#X obj 521 66 inlet;
#X obj 586 66 inlet;
#X obj 517 114 << 1;
#X obj 519 89 & 1;
#X obj 469 96 & 1;
#X obj 402 88 & 1;
#X obj 327 91 & 1;
#X obj 260 83 & 1;
#X obj 196 83 & 1;
#X obj 43 13 inlet;
#X obj 149 114 & 1;
#X obj 446 121 << 2;
#X obj 402 122 << 3;
#X obj 354 122 << 4;
#X obj 292 123 << 5;
#X obj 242 125 << 6;
#X obj 170 167 << 7;
#X obj 179 492 outlet;
#X obj 184 288 pack f f f f f f f f;
#X obj 257 353 drip;
#X obj 223 320 t b l b;
#X obj 259 385 +;
#X msg 301 350 0;
#X obj 258 413 t f f;
#X obj 249 440 f;
#X obj 28 47 route bang list;
#X obj 192 10 unpack f f f f f f f f;
#X connect 0 0 24 7;
#X connect 1 0 14 0;
#X connect 2 0 13 0;
#X connect 3 0 12 0;
#X connect 4 0 11 0;
#X connect 5 0 10 0;
#X connect 6 0 9 0;
#X connect 7 0 0 0;
#X connect 8 0 24 6;
#X connect 9 0 8 0;
#X connect 10 0 17 0;
#X connect 11 0 18 0;
#X connect 12 0 19 0;
#X connect 13 0 20 0;
#X connect 14 0 21 0;
#X connect 15 0 31 0;
#X connect 16 0 22 0;
#X connect 17 0 24 5;
#X connect 18 0 24 4;
#X connect 19 0 24 3;
#X connect 20 0 24 2;
#X connect 21 0 24 1;
#X connect 22 0 24 0;
#X connect 24 0 26 0;
#X connect 25 0 27 0;
#X connect 26 0 30 0;
#X connect 26 1 25 0;
#X connect 26 2 28 0;
#X connect 27 0 29 0;
#X connect 28 0 27 1;
#X connect 29 0 30 1;
#X connect 29 1 27 1;
#X connect 30 0 23 0;
#X connect 31 0 24 0;
#X connect 31 1 32 0;
#X connect 31 2 16 0;
#X connect 32 0 16 0;
#X connect 32 1 14 0;
#X connect 32 2 13 0;
#X connect 32 3 12 0;
#X connect 32 4 11 0;
#X connect 32 5 10 0;
#X connect 32 6 9 0;
#X connect 32 7 0 0;
#X restore 358 182 pd b2n--------------;
#X obj 357 92 t b f;
#X obj 406 91 t b f;
#X obj 361 142 pack 0 0 0 0 0 0 0 0;
#N canvas 2 101 450 300 b2n-------------- 0;
#X obj 586 97 & 1;
#X obj 188 60 inlet;
#X obj 257 59 inlet;
#X obj 312 62 inlet;
#X obj 387 64 inlet;
#X obj 455 58 inlet;
#X obj 521 66 inlet;
#X obj 586 66 inlet;
#X obj 517 114 << 1;
#X obj 519 89 & 1;
#X obj 469 96 & 1;
#X obj 402 88 & 1;
#X obj 327 91 & 1;
#X obj 260 83 & 1;
#X obj 196 83 & 1;
#X obj 43 13 inlet;
#X obj 149 114 & 1;
#X obj 446 121 << 2;
#X obj 402 122 << 3;
#X obj 354 122 << 4;
#X obj 292 123 << 5;
#X obj 242 125 << 6;
#X obj 170 167 << 7;
#X obj 179 492 outlet;
#X obj 184 288 pack f f f f f f f f;
#X obj 257 353 drip;
#X obj 223 320 t b l b;
#X obj 259 385 +;
#X msg 301 350 0;
#X obj 258 413 t f f;
#X obj 249 440 f;
#X obj 28 47 route bang list;
#X obj 192 10 unpack f f f f f f f f;
#X connect 0 0 24 7;
#X connect 1 0 14 0;
#X connect 2 0 13 0;
#X connect 3 0 12 0;
#X connect 4 0 11 0;
#X connect 5 0 10 0;
#X connect 6 0 9 0;
#X connect 7 0 0 0;
#X connect 8 0 24 6;
#X connect 9 0 8 0;
#X connect 10 0 17 0;
#X connect 11 0 18 0;
#X connect 12 0 19 0;
#X connect 13 0 20 0;
#X connect 14 0 21 0;
#X connect 15 0 31 0;
#X connect 16 0 22 0;
#X connect 17 0 24 5;
#X connect 18 0 24 4;
#X connect 19 0 24 3;
#X connect 20 0 24 2;
#X connect 21 0 24 1;
#X connect 22 0 24 0;
#X connect 24 0 26 0;
#X connect 25 0 27 0;
#X connect 26 0 30 0;
#X connect 26 1 25 0;
#X connect 26 2 28 0;
#X connect 27 0 29 0;
#X connect 28 0 27 1;
#X connect 29 0 30 1;
#X connect 29 1 27 1;
#X connect 30 0 23 0;
#X connect 31 0 24 0;
#X connect 31 1 32 0;
#X connect 31 2 16 0;
#X connect 32 0 16 0;
#X connect 32 1 14 0;
#X connect 32 2 13 0;
#X connect 32 3 12 0;
#X connect 32 4 11 0;
#X connect 32 5 10 0;
#X connect 32 6 9 0;
#X connect 32 7 0 0;
#X restore 186 175 pd b2n--------------;
#X obj 185 85 t b f;
#X obj 234 84 t b f;
#X obj 189 135 pack 0 0 0 0 0 0 0 0;
#X obj 205 214 + 3;
#X obj 207 242 moses 4;
#X obj 292 309 change;
#X obj 94 355 sel 0 1 2 3 4 5 6;
#X msg 70 401 0;
#X msg 103 402 2;
#X msg 133 402 4;
#X msg 163 404 5;
#X msg 191 404 7;
#X msg 220 405 9;
#X msg 250 405 11;
#X obj 341 356 sel 0 1 2 3 4 5 6;
#X msg 317 402 C;
#X msg 350 403 D;
#X msg 380 403 E;
#X msg 410 405 F;
#X msg 438 405 G;
#X msg 467 407 A;
#X msg 497 407 B;
#X obj 350 446 tosymbol;
#X obj 355 514 outlet;
#X msg 350 475 label \$1;
#X connect 0 0 3 0;
#X connect 0 0 4 0;
#X connect 1 0 6 0;
#X connect 1 0 5 0;
#X connect 3 0 8 0;
#X connect 4 0 12 0;
#X connect 5 0 9 0;
#X connect 6 0 13 0;
#X connect 7 0 17 0;
#X connect 8 0 10 0;
#X connect 8 1 10 6;
#X connect 9 0 10 0;
#X connect 9 1 10 7;
#X connect 10 0 7 0;
#X connect 11 0 15 0;
#X connect 12 0 14 0;
#X connect 12 1 14 6;
#X connect 13 0 14 0;
#X connect 13 1 14 7;
#X connect 14 0 11 0;
#X connect 15 0 16 0;
#X connect 16 1 17 0;
#X connect 17 0 18 0;
#X connect 17 0 26 0;
#X connect 18 0 19 0;
#X connect 18 1 20 0;
#X connect 18 2 21 0;
#X connect 18 3 22 0;
#X connect 18 4 23 0;
#X connect 18 5 24 0;
#X connect 18 6 25 0;
#X connect 19 0 2 0;
#X connect 20 0 2 0;
#X connect 21 0 2 0;
#X connect 22 0 2 0;
#X connect 23 0 2 0;
#X connect 24 0 2 0;
#X connect 25 0 2 0;
#X connect 26 0 27 0;
#X connect 26 1 28 0;
#X connect 26 2 29 0;
#X connect 26 3 30 0;
#X connect 26 4 31 0;
#X connect 26 5 32 0;
#X connect 26 6 33 0;
#X connect 27 0 34 0;
#X connect 28 0 34 0;
#X connect 29 0 34 0;
#X connect 30 0 34 0;
#X connect 31 0 34 0;
#X connect 32 0 34 0;
#X connect 33 0 34 0;
#X connect 34 0 36 0;
#X connect 36 0 35 0;
#X restore 535 72 pd chaves;
#X obj 472 157 nbx 5 40 -1e+37 1e+37 0 0 empty empty empty 0 -8 0 25
-257985 -258113 -1 0 256;
#X obj 605 154 cnv 15 60 60 empty \$0-nota C 20 30 0 30 -260097 -262130
0;
#X obj 587 105 s \$0-nota;
#X floatatom 114 303 5 0 0 0 - - -;
#X obj 117 220 unpack f f f f f;
#X text 167 200 cima;
#X obj 116 241 tgl 15 0 empty empty empty 17 7 0 10 -262144 -1 -1 0
1;
#X floatatom 157 311 5 0 0 0 - - -;
#X obj 157 249 - 127;
#X obj 162 272 abs;
#X obj 56 419 toscolino-corda~;
#X obj 295 598 ezdac~;
#X obj 242 419 toscolino-corda~;
#X obj 428 420 toscolino-corda~;
#X obj 614 420 toscolino-corda~;
#X floatatom 230 302 5 0 0 0 - - -;
#X obj 233 219 unpack f f f f f;
#X obj 232 240 tgl 15 0 empty empty empty 17 7 0 10 -262144 -1 -1 0
1;
#X floatatom 273 310 5 0 0 0 - - -;
#X obj 273 248 - 127;
#X obj 278 271 abs;
#X text 283 199 baixo;
#X obj 426 264 unpack f f f f f f f f;
#X obj 419 290 * 1;
#X obj 230 279 / 2560;
#X obj 273 293 / 2560;
#X obj 677 203 loadbang;
#N canvas 2 101 665 426 escala 0;
#X obj 136 100 unpack f f f f f f f f;
#X obj 108 149 * 1;
#X obj 137 150 * 2;
#X obj 162 149 * 3;
#X obj 186 149 * 4;
#X obj 212 151 * 5;
#X obj 236 151 * 6;
#X obj 261 150 * 7;
#X obj 285 150 * 8;
#X obj 53 203 change;
#X obj 99 204 change;
#X obj 143 204 change;
#X obj 187 204 change;
#X obj 233 205 change;
#X obj 279 206 change;
#X obj 323 206 change;
#X obj 367 206 change;
#X obj 219 271 outlet;
#X obj 161 60 inlet;
#X connect 0 0 1 0;
#X connect 0 1 2 0;
#X connect 0 2 3 0;
#X connect 0 3 4 0;
#X connect 0 4 5 0;
#X connect 0 5 6 0;
#X connect 0 6 7 0;
#X connect 0 7 8 0;
#X connect 1 0 9 0;
#X connect 2 0 10 0;
#X connect 3 0 11 0;
#X connect 4 0 12 0;
#X connect 5 0 13 0;
#X connect 6 0 14 0;
#X connect 7 0 15 0;
#X connect 8 0 16 0;
#X connect 9 0 17 0;
#X connect 10 0 17 0;
#X connect 11 0 17 0;
#X connect 12 0 17 0;
#X connect 13 0 17 0;
#X connect 14 0 17 0;
#X connect 15 0 17 0;
#X connect 16 0 17 0;
#X connect 18 0 0 0;
#X restore 904 306 pd escala;
#X floatatom 904 334 5 0 0 0 - - -;
#X obj 157 294 / 2560;
#X obj 114 279 / 2560;
#X floatatom 150 377 5 0 0 0 - - -;
#X obj 606 369 + 15;
#X obj 793 386 + 19;
#X obj 152 347 / 6.4;
#X obj 371 349 +;
#X obj 530 355 + 12;
#X connect 0 0 1 0;
#X connect 2 0 3 0;
#X connect 4 0 29 0;
#X connect 4 0 34 0;
#X connect 4 1 0 0;
#X connect 4 2 11 0;
#X connect 4 3 23 0;
#X connect 4 4 2 0;
#X connect 4 4 5 0;
#X connect 5 0 6 0;
#X connect 5 1 6 1;
#X connect 6 0 7 0;
#X connect 6 1 9 0;
#X connect 10 0 17 0;
#X connect 11 0 13 0;
#X connect 11 1 15 0;
#X connect 11 2 37 0;
#X connect 11 4 41 0;
#X connect 14 0 19 0;
#X connect 15 0 16 0;
#X connect 16 0 36 0;
#X connect 17 0 18 0;
#X connect 17 0 18 1;
#X connect 19 0 18 1;
#X connect 19 0 18 0;
#X connect 20 0 18 0;
#X connect 20 0 18 1;
#X connect 21 0 18 1;
#X connect 21 0 18 0;
#X connect 22 0 20 0;
#X connect 23 0 24 0;
#X connect 23 1 26 0;
#X connect 23 2 31 0;
#X connect 25 0 21 0;
#X connect 26 0 27 0;
#X connect 27 0 32 0;
#X connect 29 0 30 0;
#X connect 31 0 22 0;
#X connect 32 0 25 0;
#X connect 34 0 35 0;
#X connect 34 0 39 0;
#X connect 34 0 40 0;
#X connect 34 0 42 0;
#X connect 34 0 43 0;
#X connect 36 0 14 0;
#X connect 37 0 10 0;
#X connect 39 0 20 1;
#X connect 40 0 21 1;
#X connect 41 0 38 0;
#X connect 41 0 42 0;
#X connect 42 0 17 1;
#X connect 43 0 19 1;
