#N canvas 0 53 779 469 24;
#X obj 124 20 toscolino;
#X floatatom -506 204 5 0 0 0 - - -;
#X floatatom -430 204 5 0 0 0 - - -;
#X floatatom -354 203 5 0 0 0 - - -;
#X floatatom -278 203 5 0 0 0 - - -;
#X floatatom -199 204 5 0 0 0 - - -;
#X floatatom -123 204 5 0 0 0 - - -;
#X floatatom -47 203 5 0 0 0 - - -;
#X floatatom 29 203 5 0 0 0 - - -;
#X obj -364 133 unpack f f f f f f f f f;
#X obj -330 502 unpack f f;
#X floatatom -327 542 5 0 0 0 - - -;
#X floatatom -210 545 5 0 0 0 - - -;
#X obj 506 53 unpack f f;
#X floatatom 509 93 5 0 0 0 - - -;
#X floatatom 626 96 5 0 0 0 - - -;
#X obj 296 373 unpack f f f f f;
#X floatatom 293 443 5 0 0 0 - - -;
#X floatatom 371 447 5 0 0 0 - - -;
#X floatatom 455 452 5 0 0 0 - - -;
#X floatatom 539 473 5 0 0 0 - - -;
#X text -29 309 joystick_cima;
#X text 293 325 joystick_baixo;
#X obj -89 351 unpack f f f f f;
#X floatatom -92 421 5 0 0 0 - - -;
#X floatatom -14 425 5 0 0 0 - - -;
#X floatatom 70 430 5 0 0 0 - - -;
#X floatatom 154 451 5 0 0 0 - - -;
#X floatatom 528 418 5 0 0 0 - - -;
#X floatatom 147 395 5 0 0 0 - - -;
#X connect 0 0 9 0;
#X connect 0 1 10 0;
#X connect 0 2 23 0;
#X connect 0 3 16 0;
#X connect 0 4 13 0;
#X connect 9 0 1 0;
#X connect 9 1 2 0;
#X connect 9 2 3 0;
#X connect 9 3 4 0;
#X connect 9 4 5 0;
#X connect 9 5 6 0;
#X connect 9 6 7 0;
#X connect 9 7 8 0;
#X connect 10 0 11 0;
#X connect 10 1 12 0;
#X connect 13 0 14 0;
#X connect 13 1 15 0;
#X connect 16 0 17 0;
#X connect 16 1 18 0;
#X connect 16 2 19 0;
#X connect 16 3 20 0;
#X connect 16 4 28 0;
#X connect 23 0 24 0;
#X connect 23 1 25 0;
#X connect 23 2 26 0;
#X connect 23 3 27 0;
#X connect 23 4 29 0;
