#N canvas 271 266 929 396 24;
#X obj 54 21 inlet;
#X obj 54 97 sel 1 2 3 4 5 6 7 8 9 10 11 12 13;
#X msg 52 177 60;
#X msg 112 177 62;
#X obj 51 235 outlet;
#X msg 168 178 64;
#X msg 228 178 65;
#X msg 290 178 67;
#X msg 349 177 69;
#X msg 410 178 71;
#X msg 474 178 72;
#X connect 0 0 1 0;
#X connect 1 0 2 0;
#X connect 1 1 3 0;
#X connect 1 2 5 0;
#X connect 1 3 6 0;
#X connect 1 4 7 0;
#X connect 1 5 8 0;
#X connect 1 6 9 0;
#X connect 1 7 10 0;
#X connect 2 0 4 0;
#X connect 3 0 4 0;
#X connect 5 0 4 0;
#X connect 6 0 4 0;
#X connect 7 0 4 0;
#X connect 8 0 4 0;
#X connect 9 0 4 0;
#X connect 10 0 4 0;
